<svg width="24" height="24" viewBox="0 0 24 24" fill="none" xmlns="http://www.w3.org/2000/svg">
<g clip-path="url(#clip0_6020_2541)">
<path d="M21.8549 0V19.6983L4.29583 21.6145L2.14502 21.8492V2.15081C2.14502 1.55686 2.38549 1.01892 2.77474 0.629672C3.16399 0.240422 3.70188 0 4.29583 0L21.8549 0Z" fill="#DA4A54"/>
<path d="M4.29583 0V21.6145L2.14502 21.8492V2.15081C2.14502 1.55686 2.38549 1.01892 2.77474 0.629672C3.16399 0.240422 3.70188 0 4.29583 0V0Z" fill="#C32430"/>
<path d="M21.8551 19.6985H4.29574C3.10793 19.6985 2.14502 20.6614 2.14502 21.8492C2.14502 23.037 3.10793 23.9999 4.29574 23.9999H21.8551V22.7927L20.98 21.8492L21.8551 20.9057V19.6985Z" fill="#C32430"/>
<path d="M4.29579 22.7928C3.77553 22.7928 3.35229 22.3695 3.35229 21.8493C3.35229 21.329 3.77553 20.9058 4.29579 20.9058H21.8551V22.7928H4.29579Z" fill="#DFEAEF"/>
<path d="M9.88973 4.66317L8.32621 3.05845L6.7627 4.66317V0H9.88973V4.66317Z" fill="#F4DD45"/>
<path d="M16.7072 6.01135H8.36935C7.53338 6.01135 6.85571 6.68902 6.85571 7.52499V12.1436C6.85571 12.9796 7.53338 13.6573 8.36935 13.6573H16.7072C17.5432 13.6573 18.2208 12.9796 18.2208 12.1436V7.52499C18.2208 6.68902 17.5432 6.01135 16.7072 6.01135Z" fill="#DFEAEF"/>
<path d="M16.7071 14.0195H8.36925C7.33491 14.0195 6.49341 13.178 6.49341 12.1436V7.52497C6.49341 6.49067 7.33491 5.64917 8.36925 5.64917H16.7071C17.7414 5.64917 18.5829 6.49067 18.5829 7.52497V12.1436C18.5829 13.178 17.7414 14.0195 16.7071 14.0195ZM8.36925 6.37353C7.73433 6.37353 7.21777 6.89009 7.21777 7.52497V12.1436C7.21777 12.7785 7.73433 13.2951 8.36925 13.2951H16.7071C17.342 13.2951 17.8586 12.7785 17.8586 12.1436V7.52497C17.8586 6.89005 17.342 6.37353 16.7071 6.37353H8.36925Z" fill="#C32430"/>
<path d="M15.9399 9.23701H9.13633C8.93631 9.23701 8.77417 9.07487 8.77417 8.87485C8.77417 8.67484 8.93631 8.5127 9.13633 8.5127H15.9398C16.1398 8.5127 16.302 8.67484 16.302 8.87485C16.302 9.07487 16.1399 9.23701 15.9399 9.23701Z" fill="#665E66"/>
<path d="M15.9399 11.1558H9.13633C8.93631 11.1558 8.77417 10.9937 8.77417 10.7937C8.77417 10.5937 8.93631 10.4315 9.13633 10.4315H15.9398C16.1398 10.4315 16.302 10.5937 16.302 10.7937C16.302 10.9937 16.1399 11.1558 15.9399 11.1558Z" fill="#665E66"/>
</g>
<defs>
<clipPath id="clip0_6020_2541">
<rect width="24" height="24" fill="white"/>
</clipPath>
</defs>
</svg>
