<svg width="24" height="25" viewBox="0 0 24 25" fill="none" xmlns="http://www.w3.org/2000/svg">
<path d="M22.6012 14.0239L24 13.8045V11.1955L22.6012 10.9761C21.45 10.782 21.0455 9.25719 21.9455 8.5175L23.0011 7.64797L21.7022 5.39891L20.4103 5.88266C19.3167 6.29234 18.2072 5.18422 18.6173 4.08969L19.1011 2.79781L16.852 1.49891L15.9825 2.55453C15.2442 3.45266 13.7184 3.05188 13.5239 1.89875L13.3045 0.5H10.6955L10.4761 1.89875C10.2806 3.05 8.75719 3.45453 8.0175 2.55453L7.14797 1.49891L4.89891 2.79781L5.38266 4.08969C5.79234 5.18328 4.68422 6.29281 3.58969 5.88266L2.29781 5.39891L0.998906 7.64797L2.05453 8.5175C2.95078 9.25531 2.55469 10.7811 1.39875 10.9761L0 11.1955V13.8045L1.39875 14.0239C2.54531 14.2184 2.95781 15.7391 2.05453 16.4825L0.998906 17.352L2.29781 19.6011L3.58969 19.1173C4.67812 18.7095 5.79469 19.8116 5.38266 20.9103L4.89891 22.2022L7.14797 23.5011L8.0175 22.4455C8.75484 21.5497 10.2802 21.9453 10.4761 23.1012L10.6955 24.5H13.3045L13.5239 23.1012C13.717 21.9575 15.2377 21.5403 15.9825 22.4455L16.852 23.5011L19.1011 22.2022L18.6173 20.9103C18.2095 19.8219 19.3116 18.7053 20.4103 19.1173L21.7022 19.6011L23.0011 17.352L21.9455 16.4825C21.0473 15.7437 21.4481 14.2194 22.6012 14.0239ZM12 18.3594C8.76891 18.3594 6.14062 15.7311 6.14062 12.5C6.14062 9.26891 8.76891 6.64062 12 6.64062C15.2311 6.64062 17.8594 9.26891 17.8594 12.5C17.8594 15.7311 15.2311 18.3594 12 18.3594Z" fill="#7ED8F6"/>
<path d="M21.9455 16.4825L23.0011 17.352L21.7022 19.6011L20.4103 19.1173C19.3116 18.7053 18.2095 19.8219 18.6173 20.9103L19.1011 22.2022L16.852 23.5011L15.9825 22.4455C15.2377 21.5403 13.717 21.9575 13.5239 23.1012L13.3045 24.5H12V18.3594C15.2311 18.3594 17.8594 15.7311 17.8594 12.5C17.8594 9.26891 15.2311 6.64062 12 6.64062V0.5H13.3045L13.5239 1.89875C13.7184 3.05188 15.2442 3.45266 15.9825 2.55453L16.852 1.49891L19.1011 2.79781L18.6173 4.08969C18.2072 5.18422 19.3167 6.29234 20.4103 5.88266L21.7022 5.39891L23.0011 7.64797L21.9455 8.5175C21.0455 9.25719 21.45 10.782 22.6012 10.9761L24 11.1955V13.8045L22.6012 14.0239C21.4481 14.2194 21.0473 15.7437 21.9455 16.4825Z" fill="#6AA9FF"/>
<path d="M12 6.17188C8.51062 6.17188 5.67188 9.01062 5.67188 12.5C5.67188 15.9894 8.51062 18.8281 12 18.8281C15.4894 18.8281 18.3281 15.9894 18.3281 12.5C18.3281 9.01062 15.4894 6.17188 12 6.17188ZM12 16.0156C10.0617 16.0156 8.48438 14.4388 8.48438 12.5C8.48438 10.5612 10.0617 8.98438 12 8.98438C13.9383 8.98438 15.5156 10.5612 15.5156 12.5C15.5156 14.4388 13.9383 16.0156 12 16.0156Z" fill="#6AA9FF"/>
<path d="M18.3281 12.5C18.3281 15.9894 15.4894 18.8281 12 18.8281V16.0156C13.9383 16.0156 15.5156 14.4388 15.5156 12.5C15.5156 10.5612 13.9383 8.98438 12 8.98438V6.17188C15.4894 6.17188 18.3281 9.01062 18.3281 12.5Z" fill="#4895FF"/>
</svg>
