<svg width="16" height="16" viewBox="0 0 16 16" fill="none" xmlns="http://www.w3.org/2000/svg">
<path d="M12.2439 6.64727L11.1203 6.64729V6.04195L11.6821 5.73947L12.2439 6.04195V6.64727Z" fill="#87A0AF" stroke="#B54B0F" stroke-width="1.2"/>
<path d="M4.97978 6.74729H3.65613V5.98221L4.31794 5.6259L4.97978 5.98222V6.74729Z" fill="#B4D2D7" stroke="#B54B0F"/>
<path d="M12.8439 4.84394C12.8439 2.16872 10.6753 0 8.00001 0L7.37451 1.21875L8.00001 2.32366C9.3897 2.32366 10.5203 3.45425 10.5203 4.84394V5.68353H12.8439V4.84394Z" fill="#B4D2D7"/>
<path d="M5.47978 4.84394C5.47978 3.45425 6.61038 2.32366 8.00007 2.32366V0C5.32482 0 3.15613 2.16872 3.15613 4.84394V5.68353H5.47978V4.84394Z" fill="#E1EBF0"/>
<path d="M8.00001 6.67111L7.37451 11.2604L8.00001 16C11.5519 16 14.3389 15.0033 14.3389 15.0033V7.66777C14.3389 7.66777 11.5519 6.67111 8.00001 6.67111Z" fill="#FFB655"/>
<path d="M1.66113 7.66777V15.0033C1.66113 15.0033 4.4482 16 8.00004 16V6.67111C4.44816 6.67111 1.66113 7.66777 1.66113 7.66777Z" fill="#FFDA44"/>
<path d="M7.53125 11.2812H8.46875V13.2444H7.53125V11.2812Z" fill="#FF7C48"/>
<path d="M8.00001 8.95798L7.37451 10.4226L8.00001 11.8872C8.80889 11.8872 9.46461 11.2314 9.46461 10.4226C9.46461 9.6137 8.80889 8.95798 8.00001 8.95798Z" fill="#FF7C48"/>
<path d="M6.5354 10.4226C6.5354 11.2314 7.19112 11.8872 7.99999 11.8872V8.95798C7.19112 8.95798 6.5354 9.6137 6.5354 10.4226Z" fill="#FFB655"/>
</svg>
