<svg width="24" height="24" viewBox="0 0 24 24" fill="none" xmlns="http://www.w3.org/2000/svg">
<g clip-path="url(#clip0_6020_2556)">
<path d="M10 12.9998C11.654 12.9998 13 11.6538 13 9.99984C13 8.34586 11.654 6.99987 10 6.99987H8.00014V2.99997C8.00014 1.34599 9.34614 0 11.0001 0H21.7499C22.079 0 22.387 0.161864 22.5739 0.432857C22.7599 0.70385 22.8019 1.049 22.6839 1.35588L15.434 20.3558C15.2869 20.7438 14.915 20.9998 14.5 20.9998H11.0001C9.34614 20.9998 8.00014 19.6538 8.00014 17.9998V12.9998H10Z" fill="#2196F3"/>
<path d="M5.38305 14.9241C5.75604 14.7691 6.00011 14.4041 6.00011 14V11.0001H10C10.5521 11.0001 11.0001 10.5522 11.0001 10.0001C11.0001 9.44807 10.5521 9.0002 10 9.0002H6.00011V6.00023C6.00011 5.59612 5.75604 5.2312 5.38305 5.07611C5.00916 4.9212 4.57905 5.00726 4.29322 5.29327L0.293141 9.29317C-0.097785 9.68409 -0.097785 10.3162 0.293141 10.7071L4.29322 14.7072C4.57905 14.993 5.00916 15.0791 5.38305 14.9241Z" fill="#607D8B"/>
<path d="M15.354 2.10168L21.3629 0.0987146C22.719 -0.318212 24 0.682815 24 1.9997V19.9995C24 20.8546 23.456 21.6176 22.6459 21.8976L16.6381 23.9005C16.4171 23.9685 16.2141 23.9996 16 23.9996C14.897 23.9996 14.0002 23.1026 14.0002 21.9995V3.99974C14.0002 3.14483 14.5442 2.38183 15.354 2.10168Z" fill="#64B5F6"/>
</g>
<defs>
<clipPath id="clip0_6020_2556">
<rect width="24" height="24" fill="white"/>
</clipPath>
</defs>
</svg>
