<svg width="16" height="17" viewBox="0 0 16 17" fill="none" xmlns="http://www.w3.org/2000/svg">
<path d="M14.6667 8.49999C14.6667 12.1819 11.6819 15.1667 8.00004 15.1667C6.05909 15.1667 4.31188 14.3373 3.09365 13.0135C2.77365 12.666 2.49038 12.2842 2.24929 11.8747C1.66725 10.8848 1.33337 9.73129 1.33337 8.49999C1.33337 4.81809 4.31814 1.83333 8.00004 1.83333C9.2316 1.83333 10.3851 2.16721 11.3747 2.74952C11.7843 2.99033 12.1658 3.2736 12.5132 3.59387C13.837 4.81156 14.6667 6.55904 14.6667 8.49999Z" fill="#F0CD00"/>
<path d="M14.6668 8.49999C14.6668 12.0989 11.8154 15.0317 8.24834 15.162C4.68126 15.0317 1.82983 12.0989 1.82983 8.49999C1.82983 4.90108 4.68126 1.96829 8.24834 1.83795C11.8154 1.96829 14.6668 4.90108 14.6668 8.49999Z" fill="#FFDE50"/>
<path d="M12.5132 3.59388L3.09362 13.0135C2.77362 12.666 2.49036 12.2842 2.24927 11.8747L11.3747 2.74953C11.7842 2.99034 12.1657 3.27361 12.5132 3.59388Z" fill="#FFEA94"/>
<path d="M14.2069 6.06272L5.56252 14.7071C4.95055 14.4665 4.38266 14.1381 3.87463 13.7373L13.2374 4.37456C13.6382 4.88258 13.9666 5.45048 14.2069 6.06272Z" fill="#FFEA94"/>
<path d="M13.1805 8.49999C13.1805 11.3609 10.8611 13.6804 8.00011 13.6804C7.00365 13.6804 6.07304 13.399 5.2831 12.9114C4.93889 12.6992 4.62161 12.4475 4.33698 12.1628C4.12773 11.9539 3.93616 11.7267 3.76501 11.4842C3.52936 11.1503 3.33208 10.7873 3.17997 10.4018C2.95467 9.83169 2.82787 9.21182 2.82025 8.56366C2.8197 8.54244 2.8197 8.52121 2.8197 8.49999C2.8197 5.63904 5.13889 3.31958 8.00011 3.31958C8.02134 3.31958 8.04283 3.31958 8.06406 3.32012C8.71222 3.32774 9.33181 3.45482 9.90188 3.67985C10.2875 3.83223 10.6505 4.02924 10.9843 4.26489C11.2268 4.43631 11.4537 4.62761 11.663 4.83686C11.9476 5.12121 12.1993 5.43876 12.4115 5.78298C12.8992 6.57291 13.1805 7.50353 13.1805 8.49999Z" fill="#FAA300"/>
<path d="M11.663 4.83686L4.33698 12.1628C4.12773 11.9539 3.93616 11.7267 3.76501 11.4842C3.52936 11.1503 3.33208 10.7873 3.17997 10.4018C2.95467 9.83169 2.82787 9.21182 2.82025 8.56366C2.8197 8.54244 2.8197 8.52121 2.8197 8.49999C2.8197 5.63904 5.13889 3.31958 8.00011 3.31958C8.02133 3.31958 8.04283 3.31958 8.06406 3.32012C8.71222 3.32774 9.33181 3.45482 9.90188 3.67985C10.2875 3.83223 10.6504 4.02924 10.9843 4.26489C11.2268 4.43631 11.4537 4.62761 11.663 4.83686Z" fill="#FFBD00"/>
<path d="M13.1803 8.49999C13.1803 11.3609 10.8609 13.6804 7.99991 13.6804C7.90168 13.6804 7.80427 13.6777 7.7074 13.6722C10.4323 13.5207 12.595 11.2627 12.595 8.49999C12.595 5.73727 10.4323 3.47931 7.7074 3.32774C7.80427 3.3223 7.90168 3.31958 7.99991 3.31958C10.8609 3.31958 13.1803 5.63904 13.1803 8.49999Z" fill="#F68E00"/>
<path d="M11.7661 9.16495C11.6555 9.2297 11.5229 9.20812 11.4013 9.18653C11.6445 8.75488 11.8655 8.28006 11.8877 7.78366C11.8987 7.7405 11.8324 7.72971 11.8213 7.76208C11.7108 8.01028 11.5339 8.24769 11.2465 8.29085C11.5118 7.68654 11.4344 6.95273 11.357 6.31604C11.357 6.27288 11.2907 6.26208 11.2797 6.30525C10.9259 8.46352 7.70913 6.99589 7.44383 9.63977C7.18958 6.99589 3.96172 8.46352 3.60799 6.30525C3.60799 6.26208 3.54166 6.27288 3.54166 6.31604C3.45323 6.95273 3.3869 7.68654 3.6522 8.29085C3.36479 8.24769 3.18792 8.01028 3.07738 7.76208C3.05527 7.72971 3 7.7405 3 7.77287C3.03316 8.28006 3.25425 8.75488 3.49744 9.18653C3.36479 9.20812 3.24319 9.2297 3.1216 9.16495C3.08843 9.14337 3.05527 9.18653 3.07738 9.21891C3.55271 9.79085 3.87329 10.1578 4.68025 10.1901C4.55866 10.2657 4.44811 10.3304 4.32652 10.406C4.2823 10.4275 4.31546 10.4815 4.34862 10.4707C4.68025 10.4167 5.07821 10.352 5.42089 10.4275C5.33246 10.5139 5.23297 10.5678 5.12242 10.6218C5.08926 10.6326 5.10032 10.6865 5.14453 10.6865C5.89623 10.6434 7.36645 11.0103 7.44383 10.0283C7.54331 11.0211 8.99143 10.6434 9.75417 10.6865C9.78734 10.6865 9.80945 10.6326 9.77628 10.6218C9.66574 10.5678 9.56625 10.5139 9.47782 10.4275C9.80945 10.352 10.2185 10.4167 10.539 10.4707C10.5832 10.4815 10.6054 10.4275 10.5722 10.406C10.4506 10.3304 10.329 10.2657 10.2074 10.1901C11.0254 10.1578 11.346 9.79085 11.8103 9.21891C11.8434 9.18653 11.8103 9.14337 11.7661 9.16495ZM5.71936 8.61459C5.63092 8.61459 5.63092 8.47431 5.71936 8.47431C5.80779 8.47431 5.80779 8.61459 5.71936 8.61459ZM5.69725 8.03186C5.77463 8.03186 5.77463 8.15057 5.69725 8.15057C5.60881 8.15057 5.60881 8.03186 5.69725 8.03186ZM4.80185 7.90237C4.91239 7.90237 4.91239 8.06424 4.80185 8.06424C4.70236 8.06424 4.70236 7.90237 4.80185 7.90237ZM3.95067 7.68654C4.017 7.68654 4.017 7.79445 3.95067 7.79445C3.87329 7.79445 3.87329 7.68654 3.95067 7.68654ZM3.84013 8.94913C3.76275 8.94913 3.76275 8.84121 3.84013 8.84121C3.91751 8.84121 3.91751 8.94913 3.84013 8.94913ZM4.51444 9.58581C4.426 9.58581 4.426 9.45632 4.51444 9.45632C4.60287 9.45632 4.60287 9.58581 4.51444 9.58581ZM4.77974 9.24049C4.65814 9.24049 4.65814 9.06783 4.77974 9.06783C4.89028 9.06783 4.89028 9.24049 4.77974 9.24049ZM4.89028 8.99229C4.75763 8.94913 4.06121 8.62539 4.26019 9.02466C4.32652 9.13258 4.38179 9.12179 4.47022 9.05704L4.49233 9.06783C4.426 9.25128 4.24914 9.24049 4.13859 9.1002C3.88434 8.78726 4.34862 8.57143 4.76869 8.86279C4.68025 8.75488 4.63604 8.59301 4.59182 8.46352C4.34862 7.77287 3.91751 8.1074 4.017 8.40956C4.05016 8.53905 4.10543 8.61459 4.20492 8.4851L4.22703 8.49589C4.1607 8.70092 3.99489 8.63618 3.90645 8.45272C3.67431 8.01028 4.41495 7.51388 4.68025 8.44193C4.71342 8.6038 4.74658 8.78726 4.86818 8.91675C4.65814 8.57143 5.00083 8.21531 5.25508 8.25848C5.50932 8.31244 5.5867 8.76567 5.1998 8.7333V8.71172C5.81885 8.38798 4.60287 8.19373 4.92345 8.92754C5.13348 8.89517 5.8299 8.81963 6.20575 9.00308C6.64792 9.20812 6.90217 9.58581 6.78057 9.84481C6.64792 10.1038 6.18364 10.147 5.74146 9.93114C5.36562 9.75847 5.00083 9.16495 4.89028 8.99229ZM4.37073 8.44193C4.43706 8.44193 4.43706 8.53905 4.37073 8.53905C4.30441 8.53905 4.30441 8.44193 4.37073 8.44193ZM5.24402 10.2765C5.38773 10.298 5.53143 10.298 5.53143 10.298C5.53143 10.298 5.23297 10.1578 5.1777 10.039C5.26613 10.0714 5.33246 10.0714 5.33246 10.0714L5.29929 9.86639C5.7083 10.3952 6.64792 10.4275 7.2559 10.2872C6.39367 10.6649 5.55354 10.4383 5.24402 10.2765ZM6.15047 8.59301C6.38261 8.67934 6.49316 8.70092 6.55948 8.69013C6.71424 8.66855 6.36051 8.38798 6.36051 8.38798C7.18958 8.71172 7.30012 9.96351 7.30012 9.96351C6.9906 9.06783 6.15047 8.59301 6.15047 8.59301ZM10.948 7.68654C11.0254 7.68654 11.0254 7.79445 10.948 7.79445C10.8707 7.79445 10.8707 7.68654 10.948 7.68654ZM10.0858 7.90237C10.1963 7.90237 10.1963 8.06424 10.0858 8.06424C9.97526 8.06424 9.97526 7.90237 10.0858 7.90237ZM9.20146 8.03186C9.27884 8.03186 9.27884 8.15057 9.20146 8.15057C9.11302 8.15057 9.11302 8.03186 9.20146 8.03186ZM9.24568 8.54985C9.24568 8.63618 9.10197 8.63618 9.10197 8.54985C9.10197 8.45272 9.24568 8.45272 9.24568 8.54985ZM7.59859 9.96351C7.59859 9.96351 7.70913 8.71172 8.5382 8.38798C8.5382 8.38798 8.18446 8.66855 8.33922 8.69013C8.3945 8.70092 8.51609 8.67934 8.73718 8.59301C8.73718 8.59301 7.90811 9.06783 7.59859 9.96351ZM9.35622 10.298C9.35622 10.298 9.51098 10.298 9.64363 10.2765C9.34516 10.4383 8.50504 10.6649 7.6428 10.2872C8.25079 10.4275 9.1904 10.3952 9.59941 9.86639L9.56625 10.0714C9.56625 10.0714 9.63258 10.0714 9.72101 10.039C9.66574 10.1578 9.35622 10.298 9.35622 10.298ZM10.119 9.24049C10.0084 9.24049 10.0084 9.06783 10.119 9.06783C10.2295 9.06783 10.2295 9.24049 10.119 9.24049ZM10.3843 9.58581C10.2958 9.58581 10.2958 9.45632 10.3843 9.45632C10.4727 9.45632 10.4727 9.58581 10.3843 9.58581ZM10.6717 8.49589L10.6827 8.4851C10.8707 8.71172 10.9591 8.26927 10.8154 8.12898C10.4727 7.75129 10.2185 8.74409 10.13 8.86279C10.3401 8.71172 10.7933 8.59301 10.8043 8.93833C10.8154 9.17574 10.4948 9.33761 10.4064 9.06783L10.4174 9.05704C10.6606 9.24049 10.9591 8.6038 10.0747 8.95992C10.0526 8.97071 10.0195 8.9815 9.99737 8.99229C9.89788 9.16495 9.53309 9.75847 9.15724 9.93114C8.71507 10.147 8.25079 10.1038 8.11814 9.84481C7.98549 9.58581 8.23974 9.20812 8.68191 9.00308C9.05775 8.81963 9.76523 8.89517 9.97526 8.92754C10.2848 8.17215 9.21251 8.30165 9.6989 8.71172L9.68785 8.7333C9.41149 8.77646 9.35622 8.45272 9.5552 8.31244C9.90893 8.08582 10.2185 8.6038 10.0305 8.90596C10.1521 8.77646 10.4064 7.53546 10.9259 8.02107C11.2354 8.33402 10.7822 8.81963 10.6717 8.49589ZM10.528 8.53905C10.4616 8.53905 10.4616 8.44193 10.528 8.44193C10.5943 8.44193 10.5943 8.53905 10.528 8.53905ZM11.0586 8.94913C10.9812 8.94913 10.9812 8.84121 11.0586 8.84121C11.1249 8.84121 11.1249 8.94913 11.0586 8.94913Z" fill="#F68E00"/>
<path d="M12.3128 9.55559C12.2023 9.62034 12.0696 9.59876 11.948 9.57717C12.1912 9.14552 12.4123 8.6707 12.4344 8.1743C12.4455 8.13114 12.3791 8.12035 12.3681 8.15272C12.2575 8.40092 12.0807 8.63833 11.7933 8.68149C12.0586 8.07718 11.9812 7.34337 11.9038 6.70668C11.9038 6.66352 11.8375 6.65272 11.8264 6.69589C11.4727 8.85416 8.25588 7.38654 7.99058 10.0304C7.73633 7.38654 4.50848 8.85416 4.15474 6.69589C4.15474 6.65272 4.08841 6.66352 4.08841 6.70668C3.99998 7.34337 3.93365 8.07718 4.19896 8.68149C3.91154 8.63833 3.73468 8.40092 3.62413 8.15272C3.60202 8.12035 3.54675 8.13114 3.54675 8.16351C3.57992 8.6707 3.801 9.14552 4.0442 9.57717C3.91154 9.59876 3.78995 9.62034 3.66835 9.55559C3.63519 9.53401 3.60202 9.57717 3.62413 9.60955C4.09947 10.1815 4.42004 10.5484 5.22701 10.5808C5.10541 10.6563 4.99487 10.7211 4.87327 10.7966C4.82905 10.8182 4.86221 10.8721 4.89538 10.8613C5.22701 10.8074 5.62496 10.7426 5.96764 10.8182C5.87921 10.9045 5.77972 10.9585 5.66918 11.0124C5.63601 11.0232 5.64707 11.0772 5.69129 11.0772C6.44298 11.034 7.9132 11.4009 7.99058 10.4189C8.09007 11.4117 9.53818 11.034 10.3009 11.0772C10.3341 11.0772 10.3562 11.0232 10.323 11.0124C10.2125 10.9585 10.113 10.9045 10.0246 10.8182C10.3562 10.7426 10.7652 10.8074 11.0858 10.8613C11.13 10.8721 11.1521 10.8182 11.1189 10.7966C10.9973 10.7211 10.8757 10.6563 10.7542 10.5808C11.5722 10.5484 11.8927 10.1815 12.357 9.60955C12.3902 9.57717 12.357 9.53401 12.3128 9.55559ZM6.26611 9.00523C6.17767 9.00523 6.17767 8.86495 6.26611 8.86495C6.35454 8.86495 6.35454 9.00523 6.26611 9.00523ZM6.244 8.4225C6.32138 8.4225 6.32138 8.54121 6.244 8.54121C6.15557 8.54121 6.15557 8.4225 6.244 8.4225ZM5.3486 8.29301C5.45915 8.29301 5.45915 8.45488 5.3486 8.45488C5.24911 8.45488 5.24911 8.29301 5.3486 8.29301ZM4.49742 8.07718C4.56375 8.07718 4.56375 8.18509 4.49742 8.18509C4.42004 8.18509 4.42004 8.07718 4.49742 8.07718ZM4.38688 9.33977C4.3095 9.33977 4.3095 9.23185 4.38688 9.23185C4.46426 9.23185 4.46426 9.33977 4.38688 9.33977ZM5.06119 9.97645C4.97276 9.97645 4.97276 9.84696 5.06119 9.84696C5.14963 9.84696 5.14963 9.97645 5.06119 9.97645ZM5.32649 9.63113C5.2049 9.63113 5.2049 9.45847 5.32649 9.45847C5.43704 9.45847 5.43704 9.63113 5.32649 9.63113ZM5.43704 9.38293C5.30439 9.33977 4.60797 9.01603 4.80694 9.4153C4.87327 9.52322 4.92854 9.51243 5.01697 9.44768L5.03908 9.45847C4.97276 9.64192 4.79589 9.63113 4.68535 9.49084C4.4311 9.1779 4.89538 8.96207 5.31544 9.25344C5.22701 9.14552 5.18279 8.98365 5.13857 8.85416C4.89538 8.16351 4.46426 8.49804 4.56375 8.8002C4.59691 8.9297 4.65218 9.00523 4.75167 8.87574L4.77378 8.88653C4.70745 9.09157 4.54164 9.02682 4.45321 8.84336C4.22106 8.40092 4.9617 7.90452 5.22701 8.83257C5.26017 8.99444 5.29333 9.1779 5.41493 9.30739C5.2049 8.96207 5.54758 8.60596 5.80183 8.64912C6.05608 8.70308 6.13346 9.15631 5.74656 9.12394V9.10236C6.3656 8.77862 5.14963 8.58437 5.4702 9.31818C5.68023 9.28581 6.37665 9.21027 6.7525 9.39372C7.19467 9.59876 7.44892 9.97645 7.32732 10.2354C7.19467 10.4944 6.73039 10.5376 6.28822 10.3218C5.91237 10.1491 5.54758 9.55559 5.43704 9.38293ZM4.91749 8.83257C4.98381 8.83257 4.98381 8.9297 4.91749 8.9297C4.85116 8.9297 4.85116 8.83257 4.91749 8.83257ZM5.79077 10.6671C5.93448 10.6887 6.07819 10.6887 6.07819 10.6887C6.07819 10.6887 5.77972 10.5484 5.72445 10.4297C5.81288 10.4621 5.87921 10.4621 5.87921 10.4621L5.84605 10.257C6.25506 10.7858 7.19467 10.8182 7.80266 10.6779C6.94042 11.0556 6.10029 10.829 5.79077 10.6671ZM6.69723 8.98365C6.92937 9.06998 7.03991 9.09157 7.10624 9.08077C7.261 9.05919 6.90726 8.77862 6.90726 8.77862C7.73633 9.10236 7.84687 10.3542 7.84687 10.3542C7.53735 9.45847 6.69723 8.98365 6.69723 8.98365ZM11.4948 8.07718C11.5722 8.07718 11.5722 8.18509 11.4948 8.18509C11.4174 8.18509 11.4174 8.07718 11.4948 8.07718ZM10.6326 8.29301C10.7431 8.29301 10.7431 8.45488 10.6326 8.45488C10.522 8.45488 10.522 8.29301 10.6326 8.29301ZM9.74821 8.4225C9.82559 8.4225 9.82559 8.54121 9.74821 8.54121C9.65978 8.54121 9.65978 8.4225 9.74821 8.4225ZM9.79243 8.94049C9.79243 9.02682 9.64872 9.02682 9.64872 8.94049C9.64872 8.84336 9.79243 8.84336 9.79243 8.94049ZM8.14534 10.3542C8.14534 10.3542 8.25588 9.10236 9.08495 8.77862C9.08495 8.77862 8.73122 9.05919 8.88598 9.08077C8.94125 9.09157 9.06285 9.06998 9.28393 8.98365C9.28393 8.98365 8.45486 9.45847 8.14534 10.3542ZM9.90297 10.6887C9.90297 10.6887 10.0577 10.6887 10.1904 10.6671C9.89192 10.829 9.05179 11.0556 8.18956 10.6779C8.79754 10.8182 9.73716 10.7858 10.1462 10.257L10.113 10.4621C10.113 10.4621 10.1793 10.4621 10.2678 10.4297C10.2125 10.5484 9.90297 10.6887 9.90297 10.6887ZM10.6657 9.63113C10.5552 9.63113 10.5552 9.45847 10.6657 9.45847C10.7763 9.45847 10.7763 9.63113 10.6657 9.63113ZM10.931 9.97645C10.8426 9.97645 10.8426 9.84696 10.931 9.84696C11.0195 9.84696 11.0195 9.97645 10.931 9.97645ZM11.2184 8.88653L11.2295 8.87574C11.4174 9.10236 11.5058 8.65991 11.3621 8.51962C11.0195 8.14193 10.7652 9.13473 10.6768 9.25344C10.8868 9.10236 11.34 8.98365 11.3511 9.32897C11.3621 9.56638 11.0416 9.72825 10.9531 9.45847L10.9642 9.44768C11.2074 9.63113 11.5058 8.99444 10.6215 9.35056C10.5994 9.36135 10.5662 9.37214 10.5441 9.38293C10.4446 9.55559 10.0798 10.1491 9.70399 10.3218C9.26182 10.5376 8.79754 10.4944 8.66489 10.2354C8.53224 9.97645 8.78649 9.59876 9.22866 9.39372C9.60451 9.21027 10.312 9.28581 10.522 9.31818C10.8315 8.56279 9.75927 8.69229 10.2457 9.10236L10.2346 9.12394C9.95824 9.1671 9.90297 8.84336 10.1019 8.70308C10.4557 8.47646 10.7652 8.99444 10.5773 9.2966C10.6989 9.1671 10.9531 7.9261 11.4727 8.41171C11.7822 8.72466 11.329 9.21027 11.2184 8.88653ZM11.0747 8.9297C11.0084 8.9297 11.0084 8.83257 11.0747 8.83257C11.1411 8.83257 11.1411 8.9297 11.0747 8.9297ZM11.6053 9.33977C11.528 9.33977 11.528 9.23185 11.6053 9.23185C11.6717 9.23185 11.6717 9.33977 11.6053 9.33977Z" fill="#FFEA94"/>
</svg>
