<svg width="24" height="24" viewBox="0 0 24 24" fill="none" xmlns="http://www.w3.org/2000/svg">
<path d="M19.7429 4.31341C14.4749 3.89618 9.20682 3.89618 3.93882 4.31341C3.10604 4.37937 2.43395 5.02549 2.34573 5.85616C1.88476 10.1948 1.88476 14.5335 2.34573 18.8721C2.43399 19.7029 3.10609 20.3489 3.93882 20.4149C9.20687 20.8321 14.4749 20.8321 19.7429 20.4149C20.5757 20.3489 21.2478 19.7028 21.336 18.8721C21.797 14.5335 21.797 10.1948 21.336 5.85616C21.2477 5.02549 20.5756 4.37937 19.7429 4.31341Z" fill="#F4DD45"/>
<path d="M4.95419 20.4898C4.61561 20.4664 4.27699 20.4419 3.93841 20.4147C3.1061 20.3485 2.43396 19.7029 2.34569 18.8718C1.88477 14.5332 1.88477 10.1945 2.34569 5.85585C2.43396 5.02546 3.1061 4.37915 3.93841 4.31296C4.27699 4.28648 4.61557 4.26126 4.95419 4.23792C4.64144 4.53238 4.43149 4.93401 4.38358 5.38673C3.88924 10.0381 3.88924 14.6895 4.38358 19.3409C4.43149 19.7936 4.64144 20.1959 4.95419 20.4898Z" fill="#ECBE6B"/>
<path d="M14.6783 4.04068V12.7035L11.8409 10.7268L9.00415 12.7035V4.04068C10.8957 3.98644 12.7867 3.98644 14.6783 4.04068Z" fill="#DA4A54"/>
</svg>
