<svg width="24" height="24" viewBox="0 0 24 24" fill="none" xmlns="http://www.w3.org/2000/svg">
<g clip-path="url(#clip0_6020_2491)">
<path d="M22.1083 0.0102539H1.87127C0.837788 0.0102539 0 0.848042 0 1.88153V7.64931C0 8.68279 0.837788 9.52058 1.87127 9.52058H3.30503L5.09022 11.9035L6.87542 9.52058H22.1083C23.1418 9.52058 23.9795 8.68279 23.9795 7.64931V1.88153C23.9795 0.848042 23.1418 0.0102539 22.1083 0.0102539Z" fill="#FFD36C"/>
<path d="M22.1082 0.0102539H20.1542C21.1877 0.0102539 22.0254 0.848042 22.0254 1.88153V7.64931C22.0254 8.68279 21.1877 9.52058 20.1542 9.52058H22.1082C23.1417 9.52058 23.9795 8.68279 23.9795 7.64931V1.88153C23.9795 0.848042 23.1417 0.0102539 22.1082 0.0102539Z" fill="#FCC645"/>
<path d="M5.18526 2.44704L5.85819 3.81054C5.87739 3.84943 5.91449 3.8764 5.95743 3.88267L7.46216 4.10133C7.57029 4.11706 7.61347 4.24994 7.53521 4.32622L6.44639 5.38755C6.41531 5.41785 6.40113 5.46146 6.40846 5.50426L6.66548 7.00291C6.68396 7.1106 6.57092 7.19272 6.47418 7.14191L5.12833 6.43435C5.08993 6.41413 5.04404 6.41413 5.00564 6.43435L3.65979 7.14191C3.56305 7.19277 3.45 7.11065 3.46848 7.00291L3.7255 5.50426C3.73284 5.46151 3.71865 5.41785 3.68758 5.38755L2.5988 4.32617C2.52054 4.24989 2.56373 4.11702 2.67185 4.10129L4.17658 3.88262C4.21952 3.8764 4.25662 3.84943 4.27583 3.81049L4.94875 2.44699C4.99719 2.34904 5.13692 2.34904 5.18526 2.44704Z" fill="#EAAF20"/>
<path d="M12.1079 2.44703L12.7808 3.81053C12.8 3.84942 12.8371 3.87639 12.8801 3.88267L14.3848 4.10133C14.4929 4.11706 14.5361 4.24993 14.4579 4.32622L13.369 5.38754C13.338 5.41784 13.3238 5.46146 13.3311 5.50425L13.5881 7.0029C13.6066 7.11059 13.4936 7.19271 13.3968 7.14191L12.051 6.43434C12.0126 6.41412 11.9667 6.41412 11.9283 6.43434L10.5824 7.14191C10.4857 7.19276 10.3727 7.11064 10.3911 7.0029L10.6482 5.50425C10.6555 5.4615 10.6413 5.41784 10.6102 5.38754L9.52141 4.32622C9.44315 4.24993 9.48633 4.11706 9.59446 4.10133L11.0992 3.88267C11.1421 3.87644 11.1792 3.84947 11.1984 3.81053L11.8714 2.44703C11.9198 2.34904 12.0596 2.34904 12.1079 2.44703Z" fill="#EAAF20"/>
<path d="M19.0306 2.44703L19.7036 3.81053C19.7228 3.84942 19.7599 3.87639 19.8028 3.88267L21.3075 4.10133C21.4157 4.11706 21.4589 4.24993 21.3806 4.32622L20.2918 5.38754C20.2607 5.41784 20.2465 5.46146 20.2538 5.50425L20.5109 7.0029C20.5293 7.11059 20.4163 7.19271 20.3196 7.14191L18.9737 6.43434C18.9353 6.41412 18.8894 6.41412 18.851 6.43434L17.5052 7.14191C17.4084 7.19276 17.2954 7.11064 17.3139 7.0029L17.5709 5.50425C17.5782 5.4615 17.564 5.41784 17.533 5.38754L16.4441 4.32622C16.3659 4.24993 16.4091 4.11706 16.5172 4.10133L18.0219 3.88267C18.0649 3.87644 18.102 3.84947 18.1212 3.81053L18.7941 2.44703C18.8425 2.34904 18.9823 2.34904 19.0306 2.44703Z" fill="#EAAF20"/>
<path d="M5.0661 23.9897C7.86403 23.9897 10.1322 21.7216 10.1322 18.9236C10.1322 16.1257 7.86403 13.8575 5.0661 13.8575C2.26817 13.8575 0 16.1257 0 18.9236C0 21.7216 2.26817 23.9897 5.0661 23.9897Z" fill="#F7F3F1"/>
<path d="M5.06123 19.6474C6.07381 19.6474 6.89468 18.8265 6.89468 17.8139C6.89468 16.8013 6.07381 15.9805 5.06123 15.9805C4.04864 15.9805 3.22778 16.8013 3.22778 17.8139C3.22778 18.8265 4.04864 19.6474 5.06123 19.6474Z" fill="#EBE1DC"/>
<path d="M5.06128 19.6473C3.35318 19.6473 1.94558 20.9337 1.75427 22.5905V22.7573C2.64234 23.5252 3.80001 23.9897 5.06615 23.9897C6.33176 23.9897 7.48891 23.5256 8.37682 22.7583L8.37803 22.687C8.23135 20.9839 6.80242 19.6473 5.06128 19.6473Z" fill="#EBE1DC"/>
<path d="M23.087 16.1493H13.1478C11.9954 16.1493 11.994 14.3641 13.1478 14.3641H23.087C24.2394 14.3641 24.2408 16.1493 23.087 16.1493Z" fill="#EBE1DC"/>
<path d="M23.1112 19.8162H13.1719C12.0196 19.8162 12.0181 18.031 13.1719 18.031H23.1112C24.2635 18.031 24.265 19.8162 23.1112 19.8162Z" fill="#EBE1DC"/>
<path d="M23.1352 23.4831H13.196C12.0436 23.4831 12.0422 21.6979 13.196 21.6979H23.1352C24.2876 21.6979 24.289 23.4831 23.1352 23.4831Z" fill="#EBE1DC"/>
</g>
<defs>
<clipPath id="clip0_6020_2491">
<rect width="24" height="24" fill="white"/>
</clipPath>
</defs>
</svg>
