<svg width="24" height="24" viewBox="0 0 24 24" fill="none" xmlns="http://www.w3.org/2000/svg">
<g clip-path="url(#clip0_6020_2473)">
<path d="M23.891 16.334C23.4381 15.6523 23.4499 14.753 23.9268 14.0829C24.0402 13.9235 24.0194 13.7048 23.8811 13.5665L10.4336 0.118906C10.2952 -0.0194218 10.0766 -0.0402343 9.91714 0.0732033C9.24701 0.55011 8.34777 0.561875 7.66606 0.108969C7.50791 0.00387512 7.29659 0.029047 7.1623 0.163344L0.163344 7.16225C0.029047 7.29655 0.00387512 7.50786 0.108969 7.66602C0.561922 8.34772 0.55011 9.24697 0.0732032 9.91709C-0.0402343 10.0765 -0.0194218 10.2951 0.118906 10.4335L13.5665 23.8811C13.7048 24.0194 13.9235 24.0402 14.0829 23.9268C14.753 23.4499 15.6523 23.4381 16.334 23.891C16.4921 23.9961 16.7034 23.9709 16.8377 23.8366L23.8367 16.8377C23.971 16.7034 23.9961 16.4921 23.891 16.334Z" fill="#FC502A"/>
<path d="M9.91712 0.0732032C9.24699 0.550109 8.34774 0.561875 7.66604 0.108922C7.50788 0.00382824 7.29657 0.029047 7.16227 0.163297L5.31287 2.0127C5.44712 1.87845 5.65848 1.85323 5.81663 1.95833C6.49833 2.41128 7.39758 2.39947 8.06771 1.92256C8.22713 1.80912 8.4458 1.82994 8.58413 1.96827L22.0317 15.4158C22.17 15.5541 22.1908 15.7728 22.0774 15.9322C21.6005 16.6024 21.5887 17.5016 22.0416 18.1833C22.1467 18.3415 22.1215 18.5528 21.9872 18.6871L23.8366 16.8377C23.9709 16.7034 23.9961 16.4921 23.891 16.3339C23.4381 15.6522 23.4499 14.753 23.9268 14.0828C24.0402 13.9234 24.0194 13.7047 23.8811 13.5664L10.4335 0.118906C10.2952 -0.0194218 10.0765 -0.0402343 9.91712 0.0732032Z" fill="#E60D28"/>
<path d="M12.0001 17.7553C15.1786 17.7553 17.7554 15.1785 17.7554 11.9999C17.7554 8.82137 15.1786 6.24463 12.0001 6.24463C8.82149 6.24463 6.24475 8.82137 6.24475 11.9999C6.24475 15.1785 8.82149 17.7553 12.0001 17.7553Z" fill="white"/>
<path d="M7.93059 7.93051C7.6094 8.2517 7.33434 8.60143 7.10498 8.97151C9.32451 7.59573 12.2766 7.87079 14.2029 9.79712C16.1293 11.7234 16.4043 14.6755 15.0285 16.8951C15.3986 16.6657 15.7484 16.3906 16.0695 16.0695C18.3171 13.8219 18.3171 10.178 16.0695 7.93051C13.822 5.68299 10.1781 5.68299 7.93059 7.93051Z" fill="#E6E6E6"/>
<path d="M20.8609 16.3129C20.7664 16.3129 20.6718 16.2769 20.5996 16.2047C20.4552 16.0603 20.4552 15.8263 20.5996 15.682L20.8783 15.4033C21.0227 15.259 21.2567 15.259 21.4009 15.4032C21.5453 15.5476 21.5453 15.7816 21.4009 15.9259L21.1222 16.2046C21.05 16.2768 20.9554 16.3129 20.8609 16.3129Z" fill="white"/>
<path d="M17.2505 19.9232C17.156 19.9232 17.0614 19.8871 16.9892 19.8149C16.8449 19.6706 16.8449 19.4366 16.9893 19.2923L17.4873 18.7944C17.6316 18.65 17.8656 18.6501 18.0099 18.7944C18.1542 18.9387 18.1542 19.1727 18.0098 19.317L17.5118 19.8149C17.4397 19.8871 17.3451 19.9232 17.2505 19.9232ZM19.0557 18.1181C18.9611 18.1181 18.8665 18.082 18.7943 18.0098C18.65 17.8655 18.65 17.6315 18.7943 17.4872L19.2923 16.9892C19.4367 16.8449 19.6707 16.8449 19.815 16.9892C19.9593 17.1336 19.9593 17.3676 19.815 17.5118L19.317 18.0098C19.2448 18.082 19.1503 18.1181 19.0557 18.1181Z" fill="white"/>
<path d="M15.6647 21.5091C15.5701 21.5091 15.4756 21.4731 15.4034 21.4009C15.2591 21.2566 15.2591 21.0226 15.4035 20.8783L15.6822 20.5995C15.8265 20.4553 16.0605 20.4553 16.2048 20.5996C16.3492 20.7439 16.3492 20.9779 16.2048 21.1222L15.926 21.401C15.8539 21.4731 15.7593 21.5091 15.6647 21.5091Z" fill="white"/>
<path d="M8.05683 3.50882C7.96228 3.50882 7.86769 3.47273 7.7955 3.40059C7.65117 3.25626 7.65117 3.02226 7.7955 2.87798L8.07427 2.59921C8.21864 2.45488 8.4526 2.45488 8.59692 2.59921C8.74125 2.74354 8.74125 2.97754 8.59692 3.12182L8.31816 3.40059C8.24597 3.47273 8.15138 3.50882 8.05683 3.50882Z" fill="white"/>
<path d="M4.44647 7.1191C4.35188 7.1191 4.25733 7.08306 4.18514 7.01087C4.04082 6.86654 4.04082 6.63254 4.18519 6.48826L4.68319 5.99031C4.82752 5.84593 5.06152 5.84598 5.2058 5.99031C5.35013 6.13463 5.35013 6.36863 5.20575 6.51292L4.70775 7.01087C4.63561 7.08301 4.54102 7.1191 4.44647 7.1191ZM6.25158 5.31399C6.15704 5.31399 6.06244 5.2779 5.99025 5.20576C5.84593 5.06143 5.84593 4.82743 5.99025 4.68315L6.48825 4.18515C6.63263 4.04082 6.86658 4.04082 7.01091 4.18515C7.15524 4.32948 7.15524 4.56348 7.01091 4.70776L6.51291 5.20576C6.44077 5.2779 6.34613 5.31399 6.25158 5.31399Z" fill="white"/>
<path d="M2.86054 8.70507C2.76594 8.70507 2.67139 8.66898 2.59921 8.59684C2.45488 8.45251 2.45488 8.21851 2.59925 8.07418L2.87802 7.79546C3.0223 7.65113 3.2563 7.65123 3.40063 7.79551C3.54496 7.93984 3.54496 8.17384 3.40058 8.31816L3.12182 8.59688C3.04972 8.66898 2.95513 8.70507 2.86054 8.70507Z" fill="white"/>
<path d="M8.83021 12.7579C8.71611 12.872 8.69441 13.1001 8.84652 13.2523C8.93886 13.3446 9.06927 13.388 9.17792 13.3446L15.0776 11.3563C15.1265 11.34 15.1645 11.3128 15.1971 11.2802C15.3438 11.1335 15.2949 10.8891 15.17 10.7641C15.0884 10.6827 14.9744 10.6446 14.8603 10.6827L8.9443 12.6872C8.90628 12.7035 8.86283 12.7252 8.83021 12.7579Z" fill="#E60D28"/>
<path d="M11.9376 12.9643L11.1499 13.752C10.6338 14.2681 10.7859 14.7896 11.2259 15.2296C11.6605 15.6642 12.182 15.8163 12.6981 15.3002L13.4858 14.5125C13.9965 14.0019 13.8498 13.4749 13.4152 13.0403C12.9752 12.6003 12.4482 12.4536 11.9376 12.9643ZM13.0241 14.0508L12.2364 14.8385C12.0354 15.0395 11.8235 15.0123 11.6334 14.8221C11.4432 14.632 11.4215 14.4256 11.6225 14.2246L12.4102 13.4369C12.6112 13.2359 12.8177 13.2576 13.0078 13.4478C13.1979 13.6379 13.2251 13.8498 13.0241 14.0508Z" fill="#E60D28"/>
<path d="M11.2857 8.71613L10.498 9.50382C9.98733 10.0145 10.134 10.5414 10.574 10.9814C11.0086 11.416 11.5356 11.5627 12.0462 11.0521L12.8339 10.2644C13.3446 9.75371 13.1979 9.22679 12.7633 8.79216C12.3233 8.35214 11.7963 8.20547 11.2857 8.71613ZM12.3559 9.1996C12.546 9.38972 12.5732 9.6016 12.3722 9.8026L11.5845 10.5903C11.3835 10.7913 11.1716 10.7641 10.9815 10.574C10.7914 10.3838 10.7696 10.1774 10.9706 9.97641L11.7583 9.18872C11.9593 8.98772 12.1658 9.00947 12.3559 9.1996Z" fill="#E60D28"/>
</g>
<defs>
<clipPath id="clip0_6020_2473">
<rect width="24" height="24" fill="white"/>
</clipPath>
</defs>
</svg>
