<svg width="16" height="16" viewBox="0 0 16 16" fill="none" xmlns="http://www.w3.org/2000/svg">
<path d="M10 8.99996C10 6.60673 8.0599 4.66663 5.66667 4.66663C3.27343 4.66663 1.33333 6.60673 1.33333 8.99996V11.7575C1.33333 11.9827 1.33333 12.0953 1.3469 12.1897C1.43111 12.7754 1.89123 13.2355 2.47691 13.3197C2.5713 13.3333 2.6839 13.3333 2.90909 13.3333H5.66667C8.0599 13.3333 10 11.3932 10 8.99996Z" fill="#616161" stroke="#616161" stroke-width="1.33333"/>
<path fill-rule="evenodd" clip-rule="evenodd" d="M8 8.00004C8 7.63185 7.70152 7.33337 7.33333 7.33337L4 7.33337C3.63181 7.33337 3.33333 7.63185 3.33333 8.00004C3.33333 8.36823 3.63181 8.66671 4 8.66671L7.33333 8.66671C7.70152 8.66671 8 8.36823 8 8.00004Z" fill="#FBFBFB"/>
<path fill-rule="evenodd" clip-rule="evenodd" d="M6.66669 10.6667C6.66669 10.2985 6.36821 10 6.00002 10H4.00002C3.63183 10 3.33335 10.2985 3.33335 10.6667C3.33335 11.0349 3.63183 11.3333 4.00002 11.3333H6.00002C6.36821 11.3333 6.66669 11.0349 6.66669 10.6667Z" fill="#FBFBFB"/>
<path d="M7.33331 7.00004C7.33331 4.975 8.97494 3.33337 11 3.33337C13.025 3.33337 14.6666 4.975 14.6666 7.00004V9.93337C14.6666 9.99528 14.6666 10.0262 14.6646 10.0523C14.6389 10.3793 14.3792 10.6389 14.0523 10.6647C14.0262 10.6667 13.9952 10.6667 13.9333 10.6667H11C8.97494 10.6667 7.33331 9.02508 7.33331 7.00004Z" fill="#616161" stroke="#FBFBFB" stroke-width="1.33333"/>
</svg>
