<svg width="18" height="21" viewBox="0 0 18 21" fill="none" xmlns="http://www.w3.org/2000/svg">
<path d="M6.96364 17.7279C7.46355 17.6222 10.5097 17.6222 11.0097 17.7279C11.437 17.8266 11.8992 18.0573 11.8992 18.5608C11.8743 19.0402 11.593 19.4653 11.2044 19.7352C10.7006 20.128 10.1092 20.3767 9.49103 20.4664C9.14914 20.5107 8.81322 20.5117 8.48325 20.4664C7.86408 20.3767 7.27273 20.128 6.76984 19.7342C6.38024 19.4653 6.09898 19.0402 6.07413 18.5608C6.07413 18.0573 6.53628 17.8266 6.96364 17.7279ZM9.04568 0.5C11.1258 0.5 13.2507 1.48702 14.5129 3.12466C15.3319 4.17916 15.7075 5.23265 15.7075 6.8703V7.29633C15.7075 8.55226 16.0395 9.29253 16.77 10.1456C17.3236 10.7741 17.5005 11.5808 17.5005 12.456C17.5005 13.3302 17.2132 14.1601 16.6378 14.8339C15.8844 15.6417 14.822 16.1573 13.7377 16.247C12.1664 16.3809 10.5941 16.4937 9.00096 16.4937C7.4068 16.4937 5.83551 16.4263 4.26421 16.247C3.17891 16.1573 2.11648 15.6417 1.36412 14.8339C0.788678 14.1601 0.500458 13.3302 0.500458 12.456C0.500458 11.5808 0.678359 10.7741 1.23095 10.1456C1.98429 9.29253 2.29438 8.55226 2.29438 7.29633V6.8703C2.29438 5.18834 2.71379 4.08852 3.57745 3.01186C4.86152 1.4417 6.91981 0.5 8.95623 0.5H9.04568Z" fill="#404040"/>
</svg>
