<svg width="16" height="16" viewBox="0 0 16 16" fill="none" xmlns="http://www.w3.org/2000/svg">
<mask id="path-1-outside-1_5986_477" maskUnits="userSpaceOnUse" x="4.66669" y="0.666626" width="7" height="5" fill="black">
<rect fill="white" x="4.66669" y="0.666626" width="7" height="5"/>
<path d="M8.88891 3.33329H7.11113C7.0078 3.33329 6.95614 3.33329 6.91375 3.32193C6.79872 3.29111 6.70887 3.20126 6.67805 3.08623C6.66669 3.04384 6.66669 2.99218 6.66669 2.88885C6.66669 2.83718 6.66669 2.81135 6.67237 2.79016C6.68778 2.73264 6.7327 2.68772 6.79022 2.67231C6.81141 2.66663 6.83724 2.66663 6.88891 2.66663H9.11113C9.1628 2.66663 9.18863 2.66663 9.20982 2.67231C9.26734 2.68772 9.31226 2.73264 9.32767 2.79016C9.33335 2.81135 9.33335 2.83718 9.33335 2.88885C9.33335 2.99218 9.33335 3.04384 9.322 3.08623C9.29117 3.20126 9.20132 3.29111 9.08629 3.32193C9.0439 3.33329 8.99224 3.33329 8.88891 3.33329Z"/>
</mask>
<path d="M6.67805 3.08623L7.96595 2.74114L6.67805 3.08623ZM6.91375 3.32193L6.56866 4.60984L6.56866 4.60984L6.91375 3.32193ZM9.322 3.08623L10.6099 3.43133L10.6099 3.43132L9.322 3.08623ZM9.08629 3.32193L9.43138 4.60984L9.43139 4.60984L9.08629 3.32193ZM9.32767 2.79016L8.03977 3.13525L8.03977 3.13525L9.32767 2.79016ZM9.20982 2.67231L9.55492 1.3844L9.55491 1.3844L9.20982 2.67231ZM6.67237 2.79016L7.96027 3.13525V3.13525L6.67237 2.79016ZM6.79022 2.67231L7.13531 3.96021H7.13531L6.79022 2.67231ZM7.11113 4.66663H8.88891V1.99996H7.11113V4.66663ZM9.11113 1.33329H6.88891V3.99996H9.11113V1.33329ZM5.33335 2.88885C5.33335 2.90634 5.3219 3.17664 5.39014 3.43132L7.96595 2.74114C7.99568 2.8521 7.99944 2.9362 8.00006 2.94965C8.00041 2.9575 8.00026 2.95838 8.00015 2.94551C8.00003 2.93259 8.00002 2.91639 8.00002 2.88885H5.33335ZM7.11113 1.99996C7.08359 1.99996 7.06739 1.99995 7.05447 1.99983C7.0416 1.99972 7.04248 1.99957 7.05033 1.99992C7.06378 2.00054 7.14788 2.0043 7.25884 2.03403L6.56866 4.60984C6.82334 4.67808 7.09364 4.66663 7.11113 4.66663V1.99996ZM5.39014 3.43132C5.54426 4.00648 5.9935 4.45572 6.56866 4.60984L7.25884 2.03403C7.60393 2.1265 7.87348 2.39605 7.96595 2.74114L5.39014 3.43132ZM8.00002 2.88885C8.00002 2.91639 8.00001 2.93259 7.9999 2.94551C7.99978 2.95838 7.99963 2.9575 7.99998 2.94965C8.0006 2.9362 8.00436 2.8521 8.03409 2.74114L10.6099 3.43132C10.6781 3.17664 10.6667 2.90634 10.6667 2.88885H8.00002ZM8.88891 4.66663C8.9064 4.66663 9.1767 4.67808 9.43138 4.60984L8.7412 2.03403C8.85216 2.0043 8.93626 2.00054 8.94971 1.99992C8.95756 1.99957 8.95844 1.99972 8.94557 1.99983C8.93265 1.99995 8.91645 1.99996 8.88891 1.99996V4.66663ZM8.03409 2.74114C8.12656 2.39605 8.39611 2.1265 8.7412 2.03403L9.43139 4.60984C10.0065 4.45572 10.4558 4.00648 10.6099 3.43133L8.03409 2.74114ZM10.6667 2.88885C10.6667 2.8751 10.667 2.82031 10.6646 2.76733C10.6618 2.70718 10.6538 2.58781 10.6156 2.44506L8.03977 3.13525C8.0072 3.0137 8.00202 2.91784 8.00069 2.88882C7.99998 2.87318 7.99996 2.86357 7.99998 2.86642C8.00001 2.86933 8.00002 2.87423 8.00002 2.88885H10.6667ZM9.11113 3.99996C9.12575 3.99996 9.13065 3.99997 9.13356 4C9.13641 4.00002 9.1268 4 9.11116 3.99928C9.08214 3.99796 8.98628 3.99278 8.86473 3.96021L9.55491 1.3844C9.41217 1.34616 9.2928 1.33813 9.23265 1.33539C9.17967 1.33297 9.12488 1.33329 9.11113 1.33329V3.99996ZM10.6156 2.44507C10.4769 1.92743 10.0726 1.5231 9.55492 1.3844L8.86473 3.96021C8.46212 3.85233 8.14765 3.53785 8.03977 3.13525L10.6156 2.44507ZM8.00002 2.88885C8.00002 2.87423 8.00003 2.86933 8.00006 2.86642C8.00008 2.86357 8.00006 2.87318 7.99935 2.88882C7.99802 2.91784 7.99284 3.0137 7.96027 3.13525L5.38446 2.44506C5.34622 2.58781 5.33819 2.70718 5.33545 2.76733C5.33303 2.82031 5.33335 2.8751 5.33335 2.88885H8.00002ZM6.88891 1.33329C6.87516 1.33329 6.82038 1.33297 6.76739 1.33539C6.70724 1.33813 6.58787 1.34615 6.44513 1.3844L7.13531 3.96021C7.01376 3.99278 6.9179 3.99796 6.88888 3.99928C6.87324 4 6.86363 4.00002 6.86648 4C6.86939 3.99997 6.87429 3.99996 6.88891 3.99996V1.33329ZM7.96027 3.13525C7.85239 3.53786 7.53792 3.85233 7.13531 3.96021L6.44513 1.3844C5.92749 1.5231 5.52317 1.92743 5.38446 2.44506L7.96027 3.13525Z" fill="#616161" mask="url(#path-1-outside-1_5986_477)"/>
<rect x="4" y="2" width="8" height="12" rx="1.33333" stroke="#616161" stroke-width="1.33333"/>
<circle cx="7.99998" cy="12" r="0.666667" fill="#616161"/>
</svg>
