<svg width="24" height="24" viewBox="0 0 24 24" fill="none" xmlns="http://www.w3.org/2000/svg">
<path d="M7.99966 8.00001V4.57143C7.99966 3.71429 8.79967 2 11.9997 2C15.1997 2 15.9997 3.71429 15.9997 4.57143V8.00001" stroke="white" stroke-width="1.25" stroke-linecap="round"/>
<mask id="path-2-inside-1_6050_3420" fill="white">
<path fill-rule="evenodd" clip-rule="evenodd" d="M3.59137 8.19648C3.62004 7.52755 4.17069 7 4.84023 7H19.1594C19.8289 7 20.3796 7.52755 20.4082 8.19648L20.8322 18.0894C20.9236 20.2215 19.2197 22 17.0857 22H6.91394C4.77987 22 3.07601 20.2215 3.16739 18.0894L3.59137 8.19648ZM8.9991 9.99992C8.9991 10.5522 8.55138 10.9999 7.99909 10.9999C7.44681 10.9999 6.99909 10.5522 6.99909 9.99992C6.99909 9.44763 7.44681 8.99992 7.99909 8.99992C8.55138 8.99992 8.9991 9.44763 8.9991 9.99992ZM15.9988 10.9999C16.5511 10.9999 16.9988 10.5522 16.9988 9.99992C16.9988 9.44763 16.5511 8.99992 15.9988 8.99992C15.4465 8.99992 14.9988 9.44763 14.9988 9.99992C14.9988 10.5522 15.4465 10.9999 15.9988 10.9999Z"/>
</mask>
<path fill-rule="evenodd" clip-rule="evenodd" d="M3.59137 8.19648C3.62004 7.52755 4.17069 7 4.84023 7H19.1594C19.8289 7 20.3796 7.52755 20.4082 8.19648L20.8322 18.0894C20.9236 20.2215 19.2197 22 17.0857 22H6.91394C4.77987 22 3.07601 20.2215 3.16739 18.0894L3.59137 8.19648ZM8.9991 9.99992C8.9991 10.5522 8.55138 10.9999 7.99909 10.9999C7.44681 10.9999 6.99909 10.5522 6.99909 9.99992C6.99909 9.44763 7.44681 8.99992 7.99909 8.99992C8.55138 8.99992 8.9991 9.44763 8.9991 9.99992ZM15.9988 10.9999C16.5511 10.9999 16.9988 10.5522 16.9988 9.99992C16.9988 9.44763 16.5511 8.99992 15.9988 8.99992C15.4465 8.99992 14.9988 9.44763 14.9988 9.99992C14.9988 10.5522 15.4465 10.9999 15.9988 10.9999Z" fill="white"/>
<path d="M3.59137 8.19648L2.34252 8.14295L3.59137 8.19648ZM20.4082 8.19648L21.6571 8.14295V8.14295L20.4082 8.19648ZM20.8322 18.0894L19.5834 18.1429V18.1429L20.8322 18.0894ZM3.16739 18.0894L4.41624 18.1429L3.16739 18.0894ZM4.84023 5.75C3.50115 5.75 2.39986 6.80511 2.34252 8.14295L4.84023 8.25V8.25V5.75ZM19.1594 5.75H4.84023V8.25H19.1594V5.75ZM21.6571 8.14295C21.5997 6.8051 20.4985 5.75 19.1594 5.75V8.25L19.1594 8.25L21.6571 8.14295ZM22.0811 18.0359L21.6571 8.14295L19.1594 8.25L19.5834 18.1429L22.0811 18.0359ZM17.0857 23.25C19.9311 23.25 22.2029 20.8787 22.0811 18.0359L19.5834 18.1429C19.6443 19.5643 18.5084 20.75 17.0857 20.75V23.25ZM6.91394 23.25H17.0857V20.75H6.91394V23.25ZM1.91854 18.0359C1.7967 20.8787 4.06852 23.25 6.91394 23.25V20.75C5.49123 20.75 4.35532 19.5643 4.41624 18.1429L1.91854 18.0359ZM2.34252 8.14295L1.91854 18.0359L4.41624 18.1429L4.84023 8.25L2.34252 8.14295ZM7.99909 12.2499C9.24173 12.2499 10.2491 11.2426 10.2491 9.99992H7.7491C7.7491 9.86185 7.86102 9.74992 7.99909 9.74992V12.2499ZM5.7491 9.99992C5.7491 11.2426 6.75645 12.2499 7.99909 12.2499V9.74992C8.13716 9.74992 8.24909 9.86185 8.24909 9.99992H5.7491ZM7.99909 7.74992C6.75645 7.74992 5.7491 8.75728 5.7491 9.99992H8.24909C8.24909 10.138 8.13716 10.2499 7.99909 10.2499V7.74992ZM10.2491 9.99992C10.2491 8.75728 9.24173 7.74992 7.99909 7.74992V10.2499C7.86102 10.2499 7.7491 10.138 7.7491 9.99992H10.2491ZM15.7488 9.99992C15.7488 9.86185 15.8607 9.74992 15.9988 9.74992V12.2499C17.2414 12.2499 18.2488 11.2426 18.2488 9.99992H15.7488ZM15.9988 10.2499C15.8607 10.2499 15.7488 10.138 15.7488 9.99992H18.2488C18.2488 8.75728 17.2414 7.74992 15.9988 7.74992V10.2499ZM16.2488 9.99992C16.2488 10.138 16.1368 10.2499 15.9988 10.2499V7.74992C14.7561 7.74992 13.7488 8.75728 13.7488 9.99992H16.2488ZM15.9988 9.74992C16.1368 9.74992 16.2488 9.86185 16.2488 9.99992H13.7488C13.7488 11.2426 14.7561 12.2499 15.9988 12.2499V9.74992Z" fill="white" mask="url(#path-2-inside-1_6050_3420)"/>
</svg>
