<svg width="16" height="17" viewBox="0 0 16 17" fill="none" xmlns="http://www.w3.org/2000/svg">
<path fill-rule="evenodd" clip-rule="evenodd" d="M13.3334 7.83335C13.3334 5.96074 13.3334 5.02443 12.884 4.35183C12.6894 4.06066 12.4394 3.81066 12.1483 3.6161C11.4757 3.16669 10.5394 3.16669 8.66675 3.16669H7.33341C5.4608 3.16669 4.52449 3.16669 3.85189 3.6161C3.56072 3.81066 3.31072 4.06066 3.11616 4.35183C2.66675 5.02443 2.66675 5.96074 2.66675 7.83335C2.66675 9.70597 2.66675 10.6423 3.11616 11.3149C3.31072 11.606 3.56072 11.856 3.85189 12.0506C4.43946 12.4432 5.22828 12.4928 6.66675 12.4991V12.5L7.4038 13.9741C7.64948 14.4655 8.35068 14.4655 8.59636 13.9741L9.33341 12.5V12.4991C10.7719 12.4928 11.5607 12.4432 12.1483 12.0506C12.4394 11.856 12.6894 11.606 12.884 11.3149C13.3334 10.6423 13.3334 9.70597 13.3334 7.83335ZM6.00008 5.50002C5.4478 5.50002 5.00008 5.94774 5.00008 6.50002C5.00008 7.0523 5.4478 7.50002 6.00008 7.50002H10.0001C10.5524 7.50002 11.0001 7.0523 11.0001 6.50002C11.0001 5.94774 10.5524 5.50002 10.0001 5.50002H6.00008ZM6.00008 8.16669C5.4478 8.16669 5.00008 8.6144 5.00008 9.16669C5.00008 9.71897 5.4478 10.1667 6.00008 10.1667H8.00008C8.55237 10.1667 9.00008 9.71897 9.00008 9.16669C9.00008 8.6144 8.55237 8.16669 8.00008 8.16669H6.00008Z" fill="#E5CC4C"/>
</svg>
