<svg width="24" height="24" viewBox="0 0 24 24" fill="none" xmlns="http://www.w3.org/2000/svg">
<path fill-rule="evenodd" clip-rule="evenodd" d="M12 21C16.9706 21 21 16.9706 21 12C21 7.02944 16.9706 3 12 3C7.02944 3 3 7.02944 3 12C3 16.9706 7.02944 21 12 21ZM16.7682 9.64019C17.1218 9.21591 17.0645 8.58535 16.6402 8.23178C16.2159 7.87822 15.5853 7.93554 15.2318 8.35982L11.108 13.3083C11.041 13.3888 10.9838 13.4574 10.9327 13.5174C10.8765 13.4622 10.8133 13.3991 10.7392 13.325L8.7071 11.2929C8.31658 10.9024 7.68341 10.9024 7.29289 11.2929C6.90236 11.6834 6.90236 12.3166 7.29289 12.7071L9.325 14.7392L9.35858 14.7728L9.3586 14.7728C9.55489 14.9693 9.76836 15.183 9.97252 15.3373C10.2114 15.5179 10.5648 15.7186 11.0316 15.6975C11.4984 15.6763 11.8323 15.4444 12.0538 15.2429C12.2431 15.0707 12.4364 14.8386 12.6141 14.6251L12.6445 14.5887L16.7682 9.64019Z" fill="#A8C76B"/>
</svg>
