<svg width="25" height="24" viewBox="0 0 25 24" fill="none" xmlns="http://www.w3.org/2000/svg">
<path fill-rule="evenodd" clip-rule="evenodd" d="M21.5 12C21.5 16.9706 17.4706 21 12.5 21C7.52944 21 3.5 16.9706 3.5 12C3.5 7.02944 7.52944 3 12.5 3C17.4706 3 21.5 7.02944 21.5 12ZM8.05806 16.4419C7.81398 16.1979 7.81398 15.8021 8.05806 15.5581L11.6161 12L8.05805 8.44194C7.81397 8.19787 7.81397 7.80214 8.05805 7.55806C8.30213 7.31398 8.69786 7.31398 8.94193 7.55806L12.5 11.1161L16.0581 7.55806C16.3021 7.31398 16.6979 7.31398 16.9419 7.55806C17.186 7.80214 17.186 8.19787 16.9419 8.44194L13.3839 12L16.9419 15.5581C17.186 15.8021 17.186 16.1979 16.9419 16.4419C16.6979 16.686 16.3021 16.686 16.0581 16.4419L12.5 12.8839L8.94194 16.4419C8.69786 16.686 8.30214 16.686 8.05806 16.4419Z" fill="#D51F13"/>
</svg>
