<svg width="16" height="16" viewBox="0 0 16 16" fill="none" xmlns="http://www.w3.org/2000/svg">
<path fill-rule="evenodd" clip-rule="evenodd" d="M14.6666 7.99998C14.6666 11.6819 11.6818 14.6666 7.99992 14.6666C4.31802 14.6666 1.33325 11.6819 1.33325 7.99998C1.33325 4.31808 4.31802 1.33331 7.99992 1.33331C11.6818 1.33331 14.6666 4.31808 14.6666 7.99998ZM8.66659 5.99998C8.66659 6.36817 8.36811 6.66665 7.99992 6.66665C7.63173 6.66665 7.33325 6.36817 7.33325 5.99998C7.33325 5.63179 7.63173 5.33331 7.99992 5.33331C8.36811 5.33331 8.66659 5.63179 8.66659 5.99998ZM8.49992 7.99998C8.49992 7.72384 8.27606 7.49998 7.99992 7.49998C7.72378 7.49998 7.49992 7.72384 7.49992 7.99998V10.6666C7.49992 10.9428 7.72378 11.1666 7.99992 11.1666C8.27606 11.1666 8.49992 10.9428 8.49992 10.6666V7.99998Z" fill="#757575"/>
</svg>
