<svg width="16" height="17" viewBox="0 0 16 17" fill="none" xmlns="http://www.w3.org/2000/svg">
<path fill-rule="evenodd" clip-rule="evenodd" d="M8.26528 13.7027C9.2539 13.1899 12.6666 11.1776 12.6666 7.83335C12.6666 5.25602 10.5772 3.16669 7.99992 3.16669C5.42259 3.16669 3.33325 5.25602 3.33325 7.83335C3.33325 11.1776 6.74594 13.1899 7.73456 13.7027C7.90314 13.7901 8.0967 13.7901 8.26528 13.7027ZM7.99988 9.83335C9.10445 9.83335 9.99988 8.93792 9.99988 7.83335C9.99988 6.72878 9.10445 5.83335 7.99988 5.83335C6.89531 5.83335 5.99988 6.72878 5.99988 7.83335C5.99988 8.93792 6.89531 9.83335 7.99988 9.83335Z" fill="#4DA934"/>
</svg>
