<svg width="24" height="24" viewBox="0 0 24 24" fill="none" xmlns="http://www.w3.org/2000/svg">
<path d="M16.5609 0.1875H7.43889C6.20815 0.1875 5.21045 1.18521 5.21045 2.41594V21.5841C5.21045 22.8148 6.20815 23.8125 7.43889 23.8125H16.5609C17.7917 23.8125 18.7894 22.8148 18.7894 21.5841V2.41594C18.7894 1.18521 17.7917 0.1875 16.5609 0.1875Z" fill="#43567C"/>
<path d="M17.6419 3.1275V20.0625C17.6421 20.1126 17.6323 20.1623 17.6133 20.2086C17.5942 20.255 17.5662 20.2971 17.5309 20.3326C17.4955 20.3682 17.4535 20.3964 17.4073 20.4156C17.361 20.4349 17.3114 20.4449 17.2613 20.445H6.73878C6.68867 20.4449 6.63906 20.4349 6.5928 20.4156C6.54655 20.3964 6.50454 20.3682 6.46919 20.3326C6.43385 20.2971 6.40584 20.255 6.38679 20.2086C6.36774 20.1623 6.35801 20.1126 6.35816 20.0625V3.1275C6.35801 3.07738 6.36774 3.02773 6.38679 2.98138C6.40584 2.93503 6.43385 2.89288 6.46919 2.85736C6.50454 2.82184 6.54655 2.79363 6.5928 2.77435C6.63906 2.75507 6.68867 2.74509 6.73878 2.745H17.2613C17.3114 2.74509 17.361 2.75507 17.4073 2.77435C17.4535 2.79363 17.4955 2.82184 17.5309 2.85736C17.5662 2.89288 17.5942 2.93503 17.6133 2.98138C17.6323 3.02773 17.6421 3.07738 17.6419 3.1275Z" fill="#8CC0F3"/>
<path d="M13.5751 1.60706H10.426C10.3763 1.60706 10.3286 1.5873 10.2934 1.55214C10.2583 1.51698 10.2385 1.46928 10.2385 1.41956C10.2385 1.36983 10.2583 1.32214 10.2934 1.28697C10.3286 1.25181 10.3763 1.23206 10.426 1.23206H13.5751C13.6248 1.23206 13.6725 1.25181 13.7077 1.28697C13.7428 1.32214 13.7626 1.36983 13.7626 1.41956C13.7626 1.46928 13.7428 1.51698 13.7077 1.55214C13.6725 1.5873 13.6248 1.60706 13.5751 1.60706Z" fill="#2F3A5A"/>
<path d="M13.2098 21.4522H10.7898C10.6951 21.4522 10.6184 21.529 10.6184 21.6236V22.5523C10.6184 22.6469 10.6951 22.7237 10.7898 22.7237H13.2098C13.3045 22.7237 13.3812 22.6469 13.3812 22.5523V21.6236C13.3812 21.529 13.3045 21.4522 13.2098 21.4522Z" fill="#2F3A5A"/>
<g opacity="0.5">
<path d="M16.6069 2.745L6.35815 19.8919V17.2144L15.0057 2.745H16.6069Z" fill="#E1E6E9"/>
<path d="M17.6419 3.56625V4.90313L8.35319 20.445H7.55444L17.6419 3.56625Z" fill="#E1E6E9"/>
</g>
</svg>
