<svg width="16" height="16" viewBox="0 0 16 16" fill="none" xmlns="http://www.w3.org/2000/svg">
<path d="M4 3.83334V8.66668H6.7153C7.016 8.66668 7.16636 8.66668 7.28718 8.74135C7.40801 8.81603 7.47525 8.95051 7.60973 9.21946L7.72361 9.44722C7.85809 9.71618 7.92533 9.85066 8.04615 9.92534C8.16698 10 8.31733 10 8.61803 10H11.5C11.7357 10 11.8536 10 11.9268 9.92679C12 9.85356 12 9.73571 12 9.50001V5.16668C12 4.93097 12 4.81312 11.9268 4.7399C11.8536 4.66668 11.7357 4.66668 11.5 4.66668H8.61803C8.31733 4.66668 8.16698 4.66668 8.04615 4.592C7.92533 4.51733 7.85809 4.38285 7.72361 4.11389L7.60973 3.88613C7.47525 3.61717 7.40801 3.48269 7.28718 3.40802C7.16636 3.33334 7.016 3.33334 6.7153 3.33334H4.5C4.2643 3.33334 4.14645 3.33334 4.07322 3.40657C4 3.47979 4 3.59764 4 3.83334Z" fill="#616161"/>
<path d="M4 8.66668V3.83334C4 3.59764 4 3.47979 4.07322 3.40657C4.14645 3.33334 4.2643 3.33334 4.5 3.33334H6.7153C7.016 3.33334 7.16636 3.33334 7.28718 3.40802C7.40801 3.48269 7.47525 3.61717 7.60973 3.88613L7.72361 4.11389C7.85809 4.38285 7.92533 4.51733 8.04615 4.592C8.16698 4.66668 8.31733 4.66668 8.61803 4.66668H11.5C11.7357 4.66668 11.8536 4.66668 11.9268 4.7399C12 4.81312 12 4.93097 12 5.16668V9.50001C12 9.73571 12 9.85356 11.9268 9.92679C11.8536 10 11.7357 10 11.5 10H8.61803C8.31733 10 8.16698 10 8.04615 9.92534C7.92533 9.85066 7.85809 9.71618 7.72361 9.44722L7.60973 9.21946C7.47525 8.95051 7.40801 8.81603 7.28718 8.74135C7.16636 8.66668 7.016 8.66668 6.7153 8.66668H4ZM4 8.66668V12.6667" stroke="#616161" stroke-width="2" stroke-linecap="round"/>
</svg>
