<svg width="16" height="16" viewBox="0 0 16 16" fill="none" xmlns="http://www.w3.org/2000/svg">
<path d="M6.66659 2.66666L5.99992 2.66666C5.37994 2.66666 5.06995 2.66666 4.81561 2.7348C4.12543 2.91974 3.58633 3.45883 3.4014 4.14902C3.33325 4.40335 3.33325 4.71334 3.33325 5.33332" stroke="#404040" stroke-width="2" stroke-linejoin="round"/>
<path d="M9.33325 2.66666L9.99992 2.66666C10.6199 2.66666 10.9299 2.66666 11.1842 2.7348C11.8744 2.91974 12.4135 3.45883 12.5984 4.14902C12.6666 4.40335 12.6666 4.71334 12.6666 5.33332" stroke="#404040" stroke-width="2" stroke-linejoin="round"/>
<path d="M12.6666 9.33334L12.6666 10C12.6666 11.2462 12.6666 11.8692 12.3986 12.3333C12.2231 12.6374 11.9706 12.8899 11.6666 13.0654C11.2025 13.3333 10.5794 13.3333 9.33325 13.3333" stroke="#404040" stroke-width="2" stroke-linejoin="round"/>
<path d="M3.33325 9.33334L3.33325 10C3.33325 11.2462 3.33325 11.8692 3.6012 12.3333C3.77674 12.6374 4.02921 12.8899 4.33325 13.0654C4.79735 13.3333 5.42043 13.3333 6.66659 13.3333" stroke="#404040" stroke-width="2" stroke-linejoin="round"/>
<path d="M14 9.33334L2 9.33334" stroke="#404040" stroke-width="2" stroke-linecap="round" stroke-linejoin="round"/>
</svg>
