<svg width="16" height="17" viewBox="0 0 16 17" fill="none" xmlns="http://www.w3.org/2000/svg">
<path d="M11.9456 10.0467C11.7729 10.2141 11.6936 10.4561 11.7329 10.6934L12.3256 13.9734C12.3756 14.2514 12.2583 14.5328 12.0256 14.6934C11.7976 14.8601 11.4943 14.8801 11.2456 14.7467L8.29292 13.2067C8.19026 13.1521 8.07626 13.1228 7.95959 13.1194H7.77892C7.71626 13.1287 7.65493 13.1487 7.59893 13.1794L4.64559 14.7267C4.49959 14.8001 4.33426 14.8261 4.17226 14.8001C3.77759 14.7254 3.51426 14.3494 3.57893 13.9528L4.17226 10.6727C4.21159 10.4334 4.13226 10.1901 3.95959 10.0201L1.55226 7.68675C1.35093 7.49142 1.28093 7.19808 1.37293 6.93342C1.46226 6.66942 1.69026 6.47675 1.96559 6.43342L5.27892 5.95275C5.53093 5.92675 5.75226 5.77342 5.86559 5.54675L7.32559 2.55341C7.36026 2.48675 7.40493 2.42541 7.45893 2.37341L7.51892 2.32675C7.55026 2.29208 7.58626 2.26341 7.62626 2.24008L7.69893 2.21341L7.81226 2.16675H8.09293C8.34359 2.19275 8.56426 2.34275 8.67959 2.56675L10.1589 5.54675C10.2656 5.76475 10.4729 5.91608 10.7123 5.95275L14.0256 6.43342C14.3056 6.47342 14.5396 6.66675 14.6323 6.93342C14.7196 7.20075 14.6443 7.49408 14.4389 7.68675L11.9456 10.0467Z" fill="#FF9800"/>
</svg>
