<svg width="47" height="50" viewBox="0 0 47 50" fill="none" xmlns="http://www.w3.org/2000/svg">
<path d="M29.6577 19.576C30.3265 19.576 30.8687 19.0338 30.8687 18.3651C30.8687 17.6963 30.3265 17.1541 29.6577 17.1541C28.9889 17.1541 28.4468 17.6963 28.4468 18.3651C28.4468 19.0338 28.9889 19.576 29.6577 19.576Z" fill="#D8D8FF"/>
<path d="M33.6812 19.576C34.3499 19.576 34.8921 19.0338 34.8921 18.3651C34.8921 17.6963 34.3499 17.1541 33.6812 17.1541C33.0124 17.1541 32.4702 17.6963 32.4702 18.3651C32.4702 19.0338 33.0124 19.576 33.6812 19.576Z" fill="#D8D8FF"/>
<path d="M45.2695 33.9716L22.6827 34.5771L0.0959473 33.9716V32.2991L6.45434 22.5612L16.9274 15.5H44.0586C44.7274 15.5 45.2695 16.0421 45.2695 16.7109V33.9716Z" fill="#9393FF"/>
<path d="M18.6223 15.5002L0.0961914 33.9949V32.2996L6.45482 22.5612L16.927 15.5002H18.6223Z" fill="#8282FF"/>
<path d="M0.0959473 33.9716V39.2164C0.0959473 39.8852 0.638084 40.4274 1.30688 40.4274H32.3494L32.9549 37.1939L32.3494 33.9716H0.0959473Z" fill="#B2B2FF"/>
<path d="M32.3494 33.9716V40.4274H44.0585C44.7273 40.4274 45.2695 39.8852 45.2695 39.2164V33.9716H32.3494Z" fill="#FF6C6C"/>
<path d="M1.30688 15.5C0.638084 15.5 0.0959473 16.0421 0.0959473 16.7109V32.2991L16.9274 15.5H1.30688Z" fill="#FF6C6C"/>
<path d="M39.2383 25.6212H33.2965C32.962 25.6212 32.691 25.3502 32.691 25.0157C32.691 24.6812 32.962 24.4102 33.2965 24.4102H38.7312L39.2508 21.491H33.1267C32.7922 21.491 32.5212 21.22 32.5212 20.8856C32.5212 20.5511 32.7922 20.2801 33.1267 20.2801H39.9736C40.1527 20.2801 40.3227 20.3594 40.4377 20.4967C40.5528 20.634 40.6011 20.8153 40.5697 20.9916L39.8346 25.1218C39.783 25.4107 39.5318 25.6212 39.2383 25.6212V25.6212Z" fill="white"/>
<path d="M34.2228 25.6213C33.9664 25.6214 33.7284 25.4573 33.6461 25.2L31.9414 19.8628H30.6367C30.3023 19.8628 30.0312 19.5918 30.0312 19.2573C30.0312 18.9229 30.3023 18.6519 30.6367 18.6519H32.3836C32.6471 18.6519 32.8802 18.8221 32.9604 19.0731L34.7997 24.8316C34.9015 25.1502 34.7258 25.4909 34.4072 25.5926C34.3459 25.6121 34.2838 25.6213 34.2228 25.6213V25.6213Z" fill="white"/>
<path d="M34.2229 28.7939C34.8917 28.7939 35.4338 28.2518 35.4338 27.583C35.4338 26.9142 34.8917 26.3721 34.2229 26.3721C33.5541 26.3721 33.012 26.9142 33.012 27.583C33.012 28.2518 33.5541 28.7939 34.2229 28.7939Z" fill="white"/>
<path d="M38.2461 28.7939C38.9149 28.7939 39.457 28.2518 39.457 27.583C39.457 26.9142 38.9149 26.3721 38.2461 26.3721C37.5773 26.3721 37.0352 26.9142 37.0352 27.583C37.0352 28.2518 37.5773 28.7939 38.2461 28.7939Z" fill="white"/>
<path d="M11.5864 26.5899H10.377C10.0425 26.5899 9.77148 26.3189 9.77148 25.9844C9.77148 25.65 10.0425 25.379 10.377 25.379H11.5864C11.9209 25.379 12.1919 25.65 12.1919 25.9844C12.1919 26.3189 11.9208 26.5899 11.5864 26.5899Z" fill="#FF6C6C"/>
<path d="M15.3322 29.3368H10.3765C10.042 29.3368 9.771 29.0658 9.771 28.7313C9.771 28.3969 10.042 28.1259 10.3765 28.1259H15.3322C15.6667 28.1259 15.9377 28.3969 15.9377 28.7313C15.9377 29.0658 15.6667 29.3368 15.3322 29.3368V29.3368Z" fill="white"/>
<path d="M17.7541 31.5994H10.3765C10.042 31.5994 9.771 31.3284 9.771 30.994C9.771 30.6595 10.042 30.3885 10.3765 30.3885H17.7541C18.0886 30.3885 18.3596 30.6595 18.3596 30.994C18.3596 31.3284 18.0886 31.5994 17.7541 31.5994V31.5994Z" fill="white"/>
<path d="M39.9605 31.5994H30.8865C30.552 31.5994 30.281 31.3284 30.281 30.994C30.281 30.6595 30.552 30.3885 30.8865 30.3885H39.9605C40.295 30.3885 40.566 30.6595 40.566 30.994C40.566 31.3284 40.295 31.5994 39.9605 31.5994Z" fill="white"/>
<path d="M4.23779 19.3757C3.90333 19.3757 3.63232 19.1047 3.63232 18.7703V18.7563C3.63232 18.4219 3.90333 18.1509 4.23779 18.1509C4.57225 18.1509 4.84326 18.4219 4.84326 18.7563V18.7703C4.84326 19.1046 4.57225 19.3757 4.23779 19.3757Z" fill="white"/>
<path d="M3.83786 22.3479C3.68298 22.3479 3.52786 22.2888 3.40979 22.1705C3.1733 21.9341 3.1733 21.5507 3.40979 21.3143L5.99817 18.726C6.23443 18.4895 6.61805 18.4895 6.85431 18.726C7.0908 18.9623 7.0908 19.3457 6.85431 19.5821L4.26593 22.1705C4.14786 22.2887 3.99286 22.3479 3.83786 22.3479Z" fill="white"/>
<path d="M6.02637 22.7456C5.69191 22.7456 5.4209 22.4745 5.4209 22.1401V22.1262C5.4209 21.7917 5.69191 21.5207 6.02637 21.5207C6.36083 21.5207 6.63184 21.7917 6.63184 22.1262V22.1401C6.63184 22.4744 6.36083 22.7456 6.02637 22.7456Z" fill="white"/>
<path d="M5.73741 37.5744H3.94897C3.61451 37.5744 3.34351 37.3034 3.34351 36.9689C3.34351 36.6345 3.61451 36.3635 3.94897 36.3635H5.73741C6.07187 36.3635 6.34288 36.6345 6.34288 36.9689C6.34288 37.3034 6.07175 37.5744 5.73741 37.5744Z" fill="#6C6CFF"/>
<path d="M11.0503 37.5744H9.26172C8.92726 37.5744 8.65625 37.3034 8.65625 36.9689C8.65625 36.6345 8.92726 36.3635 9.26172 36.3635H11.0503C11.3847 36.3635 11.6557 36.6345 11.6557 36.9689C11.6557 37.3034 11.3846 37.5744 11.0503 37.5744Z" fill="#6C6CFF"/>
<path d="M16.363 37.5744H14.5745C14.24 37.5744 13.969 37.3034 13.969 36.9689C13.969 36.6345 14.24 36.3635 14.5745 36.3635H16.363C16.6975 36.3635 16.9685 36.6345 16.9685 36.9689C16.9685 37.3034 16.6975 37.5744 16.363 37.5744Z" fill="#6C6CFF"/>
<path d="M21.6759 37.5744H19.8875C19.553 37.5744 19.282 37.3034 19.282 36.9689C19.282 36.6345 19.553 36.3635 19.8875 36.3635H21.6759C22.0103 36.3635 22.2814 36.6345 22.2814 36.9689C22.2814 37.3034 22.0103 37.5744 21.6759 37.5744Z" fill="#6C6CFF"/>
<path d="M41.7717 36.3635H35.8472C35.5127 36.3635 35.2417 36.0925 35.2417 35.758C35.2417 35.4235 35.5127 35.1525 35.8472 35.1525H41.7717C42.1061 35.1525 42.3771 35.4235 42.3771 35.758C42.3771 36.0925 42.1061 36.3635 41.7717 36.3635Z" fill="white"/>
<path d="M41.7717 38.626H35.8472C35.5127 38.626 35.2417 38.355 35.2417 38.0205C35.2417 37.686 35.5127 37.415 35.8472 37.415H41.7717C42.1061 37.415 42.3771 37.686 42.3771 38.0205C42.3771 38.355 42.1061 38.626 41.7717 38.626Z" fill="white"/>
<path d="M27.859 31.5994H21.5801C21.2457 31.5994 20.9746 31.3283 20.9746 30.9939V28.8113C20.9746 28.477 21.2457 28.2059 21.5801 28.2059H27.859C28.1934 28.2059 28.4645 28.477 28.4645 28.8113V30.9939C28.4645 31.3283 28.1935 31.5994 27.859 31.5994Z" fill="#FFAA66"/>
<path d="M45.2695 16.7109V39.2162C45.2695 39.8859 44.7282 40.4271 44.0586 40.4271H1.30762C0.637969 40.4271 0.0966797 39.8859 0.0966797 39.2162V16.7109C0.0966797 16.0425 0.637969 15.5 1.30762 15.5H44.0586C44.7282 15.5 45.2695 16.0425 45.2695 16.7109Z" fill="url(#paint0_linear_5_3032)"/>
<path d="M40.7042 17.2751C43.8058 17.2751 46.3201 14.7608 46.3201 11.6592C46.3201 8.5577 43.8058 6.0434 40.7042 6.0434C37.6027 6.0434 35.0884 8.5577 35.0884 11.6592C35.0884 14.7608 37.6027 17.2751 40.7042 17.2751Z" fill="#FFC498"/>
<path d="M39.9556 7.79516C39.8814 7.71269 39.7454 7.74345 39.7139 7.84989C39.514 8.52668 38.7951 8.90534 38.124 8.68713C38.0184 8.65286 37.9161 8.74744 37.9421 8.85545C38.1074 9.54157 37.6741 10.2289 36.9838 10.3755C36.8751 10.3987 36.8338 10.5318 36.9104 10.6123C37.3966 11.1238 37.365 11.9357 36.8405 12.4079C36.758 12.4821 36.7888 12.6181 36.8952 12.6496C37.572 12.8495 37.9507 13.5684 37.7325 14.2395C37.6982 14.3451 37.7928 14.4474 37.9008 14.4214C38.5869 14.2561 39.2742 14.6894 39.4209 15.3797C39.444 15.4884 39.5771 15.5297 39.6576 15.4531C40.1691 14.9669 40.9811 14.9985 41.4532 15.523C41.5274 15.6055 41.6634 15.5747 41.6949 15.4683C41.8948 14.7915 42.6138 14.4128 43.2849 14.631C43.3905 14.6653 43.4928 14.5707 43.4668 14.4627C43.3015 13.7766 43.7347 13.0893 44.4251 12.9426C44.5337 12.9195 44.575 12.7864 44.4985 12.7059C44.0123 12.1944 44.0439 11.3824 44.5683 10.9103C44.6508 10.8361 44.6201 10.7001 44.5136 10.6686C43.8368 10.4687 43.4582 9.74973 43.6764 9.07863C43.7106 8.97303 43.6161 8.87071 43.508 8.89675C42.8219 9.06204 42.1346 8.62876 41.988 7.93841C41.9648 7.82979 41.8317 7.78849 41.7512 7.86503C41.2397 8.35134 40.4278 8.31973 39.9556 7.79516V7.79516Z" fill="#FF6C6C"/>
<path d="M39.9734 10.593C39.6389 10.593 39.3679 10.322 39.3679 9.98756V9.97363C39.3679 9.63917 39.6389 9.36816 39.9734 9.36816C40.3078 9.36816 40.5789 9.63917 40.5789 9.97363V9.98756C40.5789 10.322 40.3078 10.593 39.9734 10.593Z" fill="white"/>
<path d="M39.5735 13.5653C39.4186 13.5653 39.2635 13.5062 39.1454 13.3879C38.9089 13.1515 38.9089 12.7681 39.1454 12.5317L41.7338 9.94336C41.97 9.70687 42.3536 9.70687 42.5899 9.94336C42.8264 10.1797 42.8264 10.5631 42.5899 10.7995L40.0015 13.3879C39.8833 13.5062 39.7283 13.5653 39.5735 13.5653V13.5653Z" fill="white"/>
<path d="M41.7617 13.963C41.4273 13.963 41.1562 13.692 41.1562 13.3575V13.3436C41.1562 13.0091 41.4273 12.7381 41.7617 12.7381C42.0962 12.7381 42.3672 13.0091 42.3672 13.3436V13.3575C42.3672 13.692 42.0962 13.963 41.7617 13.963Z" fill="white"/>
<path d="M34.9048 4.51328C34.7499 4.51328 34.5948 4.45418 34.4767 4.33587L33.2052 3.06439C32.9687 2.82801 32.9687 2.44463 33.2052 2.20826L34.4767 0.936771C34.7129 0.700275 35.0966 0.700275 35.3328 0.936771L36.6043 2.20826C36.8408 2.44463 36.8408 2.82801 36.6043 3.06439L35.3328 4.33587C35.2148 4.45418 35.0596 4.51328 34.9048 4.51328V4.51328ZM34.4895 2.63632L34.9048 3.05155L35.32 2.63632L34.9048 2.22109L34.4895 2.63632Z" fill="#FF6C6C"/>
<path d="M9.35934 49.2539C9.20446 49.2539 9.04934 49.1948 8.93128 49.0765L7.65979 47.805C7.4233 47.5686 7.4233 47.1852 7.65979 46.9489L8.93128 45.6774C9.16753 45.4409 9.55116 45.4409 9.78741 45.6774L11.0589 46.9489C11.2954 47.1852 11.2954 47.5686 11.0589 47.805L9.78741 49.0765C9.66922 49.1948 9.51422 49.2539 9.35934 49.2539ZM8.94411 47.3769L9.35934 47.7922L9.77457 47.3769L9.35934 46.9617L8.94411 47.3769Z" fill="#FF6C6C"/>
<path d="M28.4597 8.48892C28.3048 8.48892 28.1497 8.42983 28.0316 8.31152L26.7601 7.04004C26.5236 6.80366 26.5236 6.42028 26.7601 6.1839L28.0316 4.91242C28.2679 4.67592 28.6515 4.67592 28.8878 4.91242L30.1592 6.1839C30.3957 6.42028 30.3957 6.80366 30.1592 7.04004L28.8878 8.31152C28.7697 8.42983 28.6147 8.48892 28.4597 8.48892V8.48892ZM28.0446 6.61197L28.4598 7.0272L28.875 6.61197L28.4598 6.19674L28.0446 6.61197Z" fill="#6C6CFF"/>
<path d="M44.6154 49.6573C44.4606 49.6573 44.3054 49.5982 44.1874 49.4799L42.9159 48.2084C42.6794 47.972 42.6794 47.5886 42.9159 47.3522L44.1874 46.0808C44.4236 45.8443 44.8073 45.8443 45.0435 46.0808L46.315 47.3522C46.5515 47.5886 46.5515 47.972 46.315 48.2084L45.0435 49.4799C44.9254 49.5982 44.7704 49.6573 44.6154 49.6573V49.6573ZM44.2003 47.7803L44.6156 48.1955L45.0308 47.7803L44.6156 47.3651L44.2003 47.7803Z" fill="#FF9C33"/>
<path d="M1.18234 48.9912C1.02746 48.9912 0.872343 48.9321 0.754276 48.8138C0.51778 48.5775 0.51778 48.1941 0.754276 47.9577L1.96521 46.7468C2.20147 46.5103 2.58509 46.5103 2.82135 46.7468C3.05784 46.9831 3.05784 47.3665 2.82135 47.6029L1.61041 48.8138C1.49222 48.9321 1.33722 48.9912 1.18234 48.9912Z" fill="#FF9C33"/>
<defs>
<linearGradient id="paint0_linear_5_3032" x1="22.6831" y1="40.0297" x2="22.6831" y2="15.7725" gradientUnits="userSpaceOnUse">
<stop stop-color="#FF4D4D" stop-opacity="0.4"/>
<stop offset="0.1463" stop-color="#FF4D4D" stop-opacity="0.342"/>
<stop offset="1" stop-color="#FF4D4D" stop-opacity="0"/>
</linearGradient>
</defs>
</svg>
