<svg width="17" height="18" viewBox="0 0 17 18" fill="none" xmlns="http://www.w3.org/2000/svg">
<path d="M5.39661 6.25054V3.9377C5.39661 3.35949 5.93627 2.20306 8.09492 2.20306C10.2536 2.20306 10.7932 3.35949 10.7932 3.9377V6.25054" stroke="white" stroke-width="0.843222" stroke-linecap="round"/>
<mask id="path-2-inside-1_5997_1390" fill="white">
<path fill-rule="evenodd" clip-rule="evenodd" d="M2.42278 6.38307C2.44212 5.93183 2.81357 5.57596 3.26523 5.57596H12.9246C13.3763 5.57596 13.7477 5.93183 13.7671 6.38307L14.0531 13.0566C14.1147 14.4949 12.9653 15.6946 11.5257 15.6946H4.66411C3.22451 15.6946 2.07513 14.4949 2.13677 13.0566L2.42278 6.38307ZM6.07119 7.5997C6.07119 7.97226 5.76917 8.27427 5.39661 8.27427C5.02405 8.27427 4.72203 7.97226 4.72203 7.5997C4.72203 7.22714 5.02405 6.92512 5.39661 6.92512C5.76917 6.92512 6.07119 7.22714 6.07119 7.5997ZM10.7932 8.27427C11.1658 8.27427 11.4678 7.97226 11.4678 7.5997C11.4678 7.22714 11.1658 6.92512 10.7932 6.92512C10.4207 6.92512 10.1187 7.22714 10.1187 7.5997C10.1187 7.97226 10.4207 8.27427 10.7932 8.27427Z"/>
</mask>
<path fill-rule="evenodd" clip-rule="evenodd" d="M2.42278 6.38307C2.44212 5.93183 2.81357 5.57596 3.26523 5.57596H12.9246C13.3763 5.57596 13.7477 5.93183 13.7671 6.38307L14.0531 13.0566C14.1147 14.4949 12.9653 15.6946 11.5257 15.6946H4.66411C3.22451 15.6946 2.07513 14.4949 2.13677 13.0566L2.42278 6.38307ZM6.07119 7.5997C6.07119 7.97226 5.76917 8.27427 5.39661 8.27427C5.02405 8.27427 4.72203 7.97226 4.72203 7.5997C4.72203 7.22714 5.02405 6.92512 5.39661 6.92512C5.76917 6.92512 6.07119 7.22714 6.07119 7.5997ZM10.7932 8.27427C11.1658 8.27427 11.4678 7.97226 11.4678 7.5997C11.4678 7.22714 11.1658 6.92512 10.7932 6.92512C10.4207 6.92512 10.1187 7.22714 10.1187 7.5997C10.1187 7.97226 10.4207 8.27427 10.7932 8.27427Z" fill="white"/>
<path d="M2.42278 6.38307L1.58033 6.34697L2.42278 6.38307ZM13.7671 6.38307L12.9246 6.41918V6.41918L13.7671 6.38307ZM14.0531 13.0566L14.8955 13.0205V13.0205L14.0531 13.0566ZM2.13677 13.0566L2.97922 13.0927L2.13677 13.0566ZM3.26523 4.73274C2.36192 4.73274 1.61901 5.44448 1.58033 6.34697L3.26523 6.41918L3.26523 6.41918V4.73274ZM12.9246 4.73274H3.26523V6.41918H12.9246V4.73274ZM14.6095 6.34697C14.5708 5.44448 13.8279 4.73274 12.9246 4.73274V6.41918L12.9246 6.41918L14.6095 6.34697ZM14.8955 13.0205L14.6095 6.34697L12.9246 6.41918L13.2106 13.0927L14.8955 13.0205ZM11.5257 16.5378C13.4452 16.5378 14.9777 14.9382 14.8955 13.0205L13.2106 13.0927C13.2517 14.0516 12.4855 14.8514 11.5257 14.8514V16.5378ZM4.66411 16.5378H11.5257V14.8514H4.66411V16.5378ZM1.29432 13.0205C1.21213 14.9382 2.74465 16.5378 4.66411 16.5378V14.8514C3.70438 14.8514 2.93812 14.0516 2.97922 13.0927L1.29432 13.0205ZM1.58033 6.34697L1.29432 13.0205L2.97922 13.0927L3.26523 6.41918L1.58033 6.34697ZM5.39661 9.1175C6.23487 9.1175 6.91441 8.43795 6.91441 7.5997H5.22796C5.22796 7.50656 5.30347 7.43105 5.39661 7.43105V9.1175ZM3.87881 7.5997C3.87881 8.43795 4.55835 9.1175 5.39661 9.1175V7.43105C5.48975 7.43105 5.56525 7.50656 5.56525 7.5997H3.87881ZM5.39661 6.08189C4.55835 6.08189 3.87881 6.76144 3.87881 7.5997H5.56525C5.56525 7.69283 5.48975 7.76834 5.39661 7.76834V6.08189ZM6.91441 7.5997C6.91441 6.76144 6.23487 6.08189 5.39661 6.08189V7.76834C5.30347 7.76834 5.22796 7.69283 5.22796 7.5997H6.91441ZM10.6246 7.5997C10.6246 7.50656 10.7001 7.43105 10.7932 7.43105V9.1175C11.6315 9.1175 12.311 8.43795 12.311 7.5997H10.6246ZM10.7932 7.76834C10.7001 7.76834 10.6246 7.69284 10.6246 7.5997H12.311C12.311 6.76144 11.6315 6.08189 10.7932 6.08189V7.76834ZM10.9619 7.5997C10.9619 7.69283 10.8864 7.76834 10.7932 7.76834V6.08189C9.95498 6.08189 9.27544 6.76144 9.27544 7.5997H10.9619ZM10.7932 7.43105C10.8864 7.43105 10.9619 7.50656 10.9619 7.5997H9.27544C9.27544 8.43795 9.95498 9.1175 10.7932 9.1175V7.43105Z" fill="white" mask="url(#path-2-inside-1_5997_1390)"/>
</svg>
