<svg width="16" height="17" viewBox="0 0 16 17" fill="none" xmlns="http://www.w3.org/2000/svg">
<path d="M8.20085 13.2756L7.97501 12.8307L7.97501 12.8307L8.20085 13.2756ZM7.79911 13.2756L7.57326 13.7205L7.57326 13.7205L7.79911 13.2756ZM12.1677 7.37321C12.1677 8.89891 11.3725 10.1409 10.4185 11.0821C9.46561 12.0222 8.39995 12.615 7.97501 12.8307L8.4267 13.7205C8.89558 13.4825 10.0628 12.8348 11.1193 11.7925C12.1748 10.7512 13.1656 9.26889 13.1656 7.37321H12.1677ZM7.99998 3.20549C10.3018 3.20549 12.1677 5.07144 12.1677 7.37321H13.1656C13.1656 4.52032 10.8529 2.2076 7.99998 2.2076V3.20549ZM3.83226 7.37321C3.83226 5.07144 5.69821 3.20549 7.99998 3.20549V2.2076C5.14709 2.2076 2.83437 4.52032 2.83437 7.37321H3.83226ZM8.02495 12.8307C7.60001 12.615 6.53435 12.0222 5.58144 11.0821C4.62745 10.1409 3.83226 8.89891 3.83226 7.37321H2.83437C2.83437 9.26889 3.82516 10.7512 4.88062 11.7925C5.93715 12.8348 7.10438 13.4825 7.57326 13.7205L8.02495 12.8307ZM7.97501 12.8307C7.99022 12.823 8.00974 12.823 8.02495 12.8307L7.57326 13.7205C7.84193 13.8569 8.15803 13.8569 8.4267 13.7205L7.97501 12.8307ZM9.50102 7.37313C9.50102 8.20215 8.82898 8.87419 7.99997 8.87419V9.87208C9.38009 9.87208 10.4989 8.75326 10.4989 7.37313H9.50102ZM7.99997 5.87208C8.82898 5.87208 9.50102 6.54412 9.50102 7.37313H10.4989C10.4989 5.99301 9.38009 4.87419 7.99997 4.87419V5.87208ZM6.49891 7.37313C6.49891 6.54412 7.17095 5.87208 7.99997 5.87208V4.87419C6.61984 4.87419 5.50102 5.99301 5.50102 7.37313H6.49891ZM7.99997 8.87419C7.17095 8.87419 6.49891 8.20215 6.49891 7.37313H5.50102C5.50102 8.75326 6.61984 9.87208 7.99997 9.87208V8.87419Z" fill="#757575"/>
</svg>
