<svg width="12" height="13" viewBox="0 0 12 13" fill="none" xmlns="http://www.w3.org/2000/svg">
<path d="M8.94031 7.21031C8.81108 7.33555 8.75171 7.51666 8.78114 7.69429L9.22471 10.1491C9.26213 10.3571 9.17431 10.5677 9.00018 10.6879C8.82954 10.8127 8.60252 10.8276 8.41642 10.7279L6.2066 9.5753C6.12976 9.53439 6.04444 9.51243 5.95713 9.50994H5.82191C5.77501 9.51693 5.72911 9.53189 5.6872 9.55484L3.47688 10.7129C3.36761 10.7678 3.24388 10.7872 3.12263 10.7678C2.82726 10.7119 2.63018 10.4305 2.67857 10.1336L3.12263 7.67882C3.15207 7.4997 3.0927 7.31758 2.96347 7.19035L1.16179 5.44405C1.01111 5.29786 0.958716 5.07833 1.02757 4.88025C1.09443 4.68267 1.26507 4.53847 1.47113 4.50604L3.95088 4.1463C4.13948 4.12684 4.30513 4.01209 4.38995 3.84245L5.48263 1.60219C5.50858 1.5523 5.54201 1.5064 5.58242 1.46748L5.62733 1.43255C5.65078 1.40661 5.67772 1.38515 5.70766 1.36769L5.76204 1.34773L5.84686 1.31281H6.05692C6.24452 1.33226 6.40967 1.44453 6.49599 1.61217L7.60314 3.84245C7.68297 4.0056 7.83814 4.11886 8.01726 4.1463L10.497 4.50604C10.7066 4.53598 10.8817 4.68067 10.951 4.88025C11.0164 5.08032 10.96 5.29986 10.8064 5.44405L8.94031 7.21031Z" fill="#FF8B33"/>
</svg>
