<svg width="24" height="25" viewBox="0 0 24 25" fill="none" xmlns="http://www.w3.org/2000/svg">
<path d="M7.99966 8.50001V5.07143C7.99966 4.21429 8.79967 2.5 11.9997 2.5C15.1997 2.5 15.9997 4.21429 15.9997 5.07143V8.50001" stroke="#404040" stroke-width="1.25" stroke-linecap="round"/>
<mask id="path-2-inside-1_5986_522" fill="white">
<path fill-rule="evenodd" clip-rule="evenodd" d="M3.59137 8.69648C3.62004 8.02755 4.17069 7.5 4.84023 7.5H19.1594C19.8289 7.5 20.3796 8.02755 20.4082 8.69648L20.8322 18.5894C20.9236 20.7215 19.2197 22.5 17.0857 22.5H6.91394C4.77987 22.5 3.07601 20.7215 3.16739 18.5894L3.59137 8.69648ZM8.9991 10.4999C8.9991 11.0522 8.55138 11.4999 7.99909 11.4999C7.44681 11.4999 6.99909 11.0522 6.99909 10.4999C6.99909 9.94763 7.44681 9.49992 7.99909 9.49992C8.55138 9.49992 8.9991 9.94763 8.9991 10.4999ZM15.9988 11.4999C16.5511 11.4999 16.9988 11.0522 16.9988 10.4999C16.9988 9.94763 16.5511 9.49992 15.9988 9.49992C15.4465 9.49992 14.9988 9.94763 14.9988 10.4999C14.9988 11.0522 15.4465 11.4999 15.9988 11.4999Z"/>
</mask>
<path fill-rule="evenodd" clip-rule="evenodd" d="M3.59137 8.69648C3.62004 8.02755 4.17069 7.5 4.84023 7.5H19.1594C19.8289 7.5 20.3796 8.02755 20.4082 8.69648L20.8322 18.5894C20.9236 20.7215 19.2197 22.5 17.0857 22.5H6.91394C4.77987 22.5 3.07601 20.7215 3.16739 18.5894L3.59137 8.69648ZM8.9991 10.4999C8.9991 11.0522 8.55138 11.4999 7.99909 11.4999C7.44681 11.4999 6.99909 11.0522 6.99909 10.4999C6.99909 9.94763 7.44681 9.49992 7.99909 9.49992C8.55138 9.49992 8.9991 9.94763 8.9991 10.4999ZM15.9988 11.4999C16.5511 11.4999 16.9988 11.0522 16.9988 10.4999C16.9988 9.94763 16.5511 9.49992 15.9988 9.49992C15.4465 9.49992 14.9988 9.94763 14.9988 10.4999C14.9988 11.0522 15.4465 11.4999 15.9988 11.4999Z" fill="#404040"/>
<path d="M3.59137 8.69648L2.34252 8.64295L3.59137 8.69648ZM20.4082 8.69648L21.6571 8.64295V8.64295L20.4082 8.69648ZM20.8322 18.5894L19.5834 18.6429V18.6429L20.8322 18.5894ZM3.16739 18.5894L4.41624 18.6429L3.16739 18.5894ZM4.84023 6.25C3.50115 6.25 2.39986 7.30511 2.34252 8.64295L4.84023 8.75V8.75V6.25ZM19.1594 6.25H4.84023V8.75H19.1594V6.25ZM21.6571 8.64295C21.5997 7.3051 20.4985 6.25 19.1594 6.25V8.75L19.1594 8.75L21.6571 8.64295ZM22.0811 18.5359L21.6571 8.64295L19.1594 8.75L19.5834 18.6429L22.0811 18.5359ZM17.0857 23.75C19.9311 23.75 22.2029 21.3787 22.0811 18.5359L19.5834 18.6429C19.6443 20.0643 18.5084 21.25 17.0857 21.25V23.75ZM6.91394 23.75H17.0857V21.25H6.91394V23.75ZM1.91854 18.5359C1.7967 21.3787 4.06852 23.75 6.91394 23.75V21.25C5.49123 21.25 4.35532 20.0643 4.41624 18.6429L1.91854 18.5359ZM2.34252 8.64295L1.91854 18.5359L4.41624 18.6429L4.84023 8.75L2.34252 8.64295ZM7.99909 12.7499C9.24173 12.7499 10.2491 11.7426 10.2491 10.4999H7.7491C7.7491 10.3619 7.86102 10.2499 7.99909 10.2499V12.7499ZM5.7491 10.4999C5.7491 11.7426 6.75645 12.7499 7.99909 12.7499V10.2499C8.13716 10.2499 8.24909 10.3619 8.24909 10.4999H5.7491ZM7.99909 8.24992C6.75645 8.24992 5.7491 9.25728 5.7491 10.4999H8.24909C8.24909 10.638 8.13716 10.7499 7.99909 10.7499V8.24992ZM10.2491 10.4999C10.2491 9.25728 9.24173 8.24992 7.99909 8.24992V10.7499C7.86102 10.7499 7.7491 10.638 7.7491 10.4999H10.2491ZM15.7488 10.4999C15.7488 10.3619 15.8607 10.2499 15.9988 10.2499V12.7499C17.2414 12.7499 18.2488 11.7426 18.2488 10.4999H15.7488ZM15.9988 10.7499C15.8607 10.7499 15.7488 10.638 15.7488 10.4999H18.2488C18.2488 9.25728 17.2414 8.24992 15.9988 8.24992V10.7499ZM16.2488 10.4999C16.2488 10.638 16.1368 10.7499 15.9988 10.7499V8.24992C14.7561 8.24992 13.7488 9.25728 13.7488 10.4999H16.2488ZM15.9988 10.2499C16.1368 10.2499 16.2488 10.3619 16.2488 10.4999H13.7488C13.7488 11.7426 14.7561 12.7499 15.9988 12.7499V10.2499Z" fill="#404040" mask="url(#path-2-inside-1_5986_522)"/>
</svg>
