<svg width="16" height="16" viewBox="0 0 16 16" fill="none" xmlns="http://www.w3.org/2000/svg">
<path fill-rule="evenodd" clip-rule="evenodd" d="M2.58579 3.91916C2 4.50495 2 5.44776 2 7.33337V8.66671C2 10.5523 2 11.4951 2.58579 12.0809C3.17157 12.6667 4.11438 12.6667 6 12.6667H10C11.8856 12.6667 12.8284 12.6667 13.4142 12.0809C14 11.4951 14 10.5523 14 8.66671V7.33337C14 5.44776 14 4.50495 13.4142 3.91916C12.8284 3.33337 11.8856 3.33337 10 3.33337H6C4.11438 3.33337 3.17157 3.33337 2.58579 3.91916ZM4.3698 4.77867C4.06345 4.57444 3.64953 4.65722 3.4453 4.96357C3.24106 5.26993 3.32385 5.68384 3.6302 5.88807L7.2604 8.30821C7.70827 8.60679 8.29174 8.60678 8.7396 8.30821L12.3698 5.88807C12.6762 5.68384 12.7589 5.26993 12.5547 4.96357C12.3505 4.65722 11.9366 4.57444 11.6302 4.77867L8 7.19881L4.3698 4.77867Z" fill="#616161"/>
</svg>
