<svg width="16" height="16" viewBox="0 0 16 16" fill="none" xmlns="http://www.w3.org/2000/svg">
<path d="M9.66666 14V10.6667C9.66666 10.2985 9.36819 10 9 10H6.99999C6.63181 10 6.33333 10.2985 6.33333 10.6667V14" stroke="#616161" stroke-width="1.33333" stroke-linecap="round" stroke-linejoin="round"/>
<path d="M3.33333 7.33337V11.3334C3.33333 12.5905 3.33333 13.219 3.72385 13.6095C4.11438 14 4.74292 14 5.99999 14H10C11.2571 14 11.8856 14 12.2761 13.6095C12.6667 13.219 12.6667 12.5905 12.6667 11.3334V7.33337" stroke="#616161" stroke-width="1.33333"/>
<path d="M2.9546 3.51493C3.13649 2.78737 3.22744 2.42359 3.4987 2.21179C3.76996 2 4.14493 2 4.89489 2H11.1051C11.8551 2 12.23 2 12.5013 2.21179C12.7726 2.42359 12.8635 2.78737 13.0454 3.51493L13.6563 5.95862C13.6862 6.07799 13.7011 6.13768 13.7082 6.18547C13.7929 6.75181 13.3856 7.27346 12.8156 7.32867C12.7675 7.33333 12.706 7.33333 12.583 7.33333V7.33333C12.4696 7.33333 12.413 7.33333 12.3632 7.32961C11.7875 7.28648 11.3049 6.87767 11.1677 6.31682C11.1558 6.26838 11.1465 6.21248 11.1279 6.10069L11.1156 6.02717C11.103 5.95117 11.0966 5.91316 11.0918 5.90199C11.0571 5.82148 10.9429 5.82148 10.9082 5.90199C10.9034 5.91316 10.897 5.95117 10.8844 6.02717L10.8585 6.18254C10.8527 6.21712 10.8498 6.23441 10.8469 6.24955C10.7293 6.86701 10.1964 7.31844 9.56799 7.33298C9.55258 7.33333 9.53505 7.33333 9.5 7.33333V7.33333C9.46495 7.33333 9.44742 7.33333 9.43201 7.33298C8.80361 7.31844 8.27071 6.86701 8.15306 6.24955C8.15018 6.23441 8.1473 6.21712 8.14153 6.18254L8.11564 6.02717C8.10297 5.95117 8.09664 5.91316 8.09181 5.90199C8.05707 5.82148 7.94293 5.82148 7.90819 5.90199C7.90336 5.91316 7.89703 5.95117 7.88436 6.02717L7.85847 6.18254C7.8527 6.21712 7.84982 6.23441 7.84694 6.24955C7.72929 6.86701 7.19639 7.31844 6.56799 7.33298C6.55258 7.33333 6.53505 7.33333 6.5 7.33333V7.33333C6.46495 7.33333 6.44742 7.33333 6.43201 7.33298C5.80361 7.31844 5.27071 6.86701 5.15306 6.24955C5.15018 6.23441 5.1473 6.21712 5.14153 6.18254L5.11564 6.02717C5.10297 5.95117 5.09664 5.91316 5.09181 5.90199C5.05707 5.82148 4.94293 5.82148 4.90819 5.90199C4.90336 5.91316 4.89703 5.95117 4.88436 6.02717L4.87211 6.10069C4.85347 6.21248 4.84416 6.26838 4.83231 6.31682C4.69511 6.87767 4.21252 7.28648 3.63675 7.32961C3.58703 7.33333 3.53036 7.33333 3.41702 7.33333V7.33333C3.29397 7.33333 3.23245 7.33333 3.18435 7.32867C2.61438 7.27346 2.2071 6.75181 2.29177 6.18547C2.29891 6.13768 2.31383 6.078 2.34368 5.95863L2.9546 3.51493Z" stroke="#616161" stroke-width="1.33333"/>
</svg>
