<svg width="20" height="21" viewBox="0 0 20 21" fill="none" xmlns="http://www.w3.org/2000/svg">
<path fill-rule="evenodd" clip-rule="evenodd" d="M19.0886 8.85126C19.0886 5.50011 19.0886 3.82453 18.2843 2.62089C17.9362 2.09981 17.4888 1.65242 16.9677 1.30425C15.7641 0.5 14.0885 0.5 10.7373 0.5H8.35126C5.00011 0.5 3.32453 0.5 2.12089 1.30425C1.59981 1.65242 1.15242 2.09981 0.804252 2.62089C0 3.82453 0 5.50011 0 8.85126C0 12.2024 0 13.878 0.804252 15.0816C1.15242 15.6027 1.59981 16.0501 2.12089 16.3983C3.17237 17.1009 4.584 17.1897 7.15822 17.2009V17.2025L8.47721 19.8405C8.91688 20.7198 10.1717 20.7198 10.6114 19.8405L11.9304 17.2025V17.2009C14.5046 17.1897 15.9162 17.1009 16.9677 16.3983C17.4888 16.0501 17.9362 15.6027 18.2843 15.0816C19.0886 13.878 19.0886 12.2024 19.0886 8.85126ZM5.96519 5.46519C5.4129 5.46519 4.96519 5.9129 4.96519 6.46519C4.96519 7.01747 5.4129 7.46519 5.96519 7.46519H13.1234C13.6757 7.46519 14.1234 7.01747 14.1234 6.46519C14.1234 5.9129 13.6757 5.46519 13.1234 5.46519H5.96519ZM5.96519 10.2373C5.4129 10.2373 4.96519 10.6851 4.96519 11.2373C4.96519 11.7896 5.4129 12.2373 5.96519 12.2373H9.5443C10.0966 12.2373 10.5443 11.7896 10.5443 11.2373C10.5443 10.6851 10.0966 10.2373 9.5443 10.2373H5.96519Z" fill="#404040"/>
</svg>
